ISO-10303-21;
HEADER;
FILE_DESCRIPTION (( 'STEP AP214' ),
    '1' );
FILE_NAME ('AC0805FR-0782KL.STEP',
    '2022-11-23T15:31:49',
    ( '' ),
    ( '' ),
    'SwSTEP 2.0',
    'SolidWorks 2022',
    '' );
FILE_SCHEMA (( 'AUTOMOTIVE_DESIGN' ));
ENDSEC;

DATA;
#1 = LINE ( 'NONE', #1045, #484 ) ;
#2 = PLANE ( 'NONE',  #942 ) ;
#3 = CARTESIAN_POINT ( 'NONE',  ( 0.9649999999999999689, -0.6250000000000000000, -0.03500000000000000333 ) ) ;
#4 = EDGE_CURVE ( 'NONE', #1030, #819, #1090, .T. ) ;
#5 = CARTESIAN_POINT ( 'NONE',  ( -1.000000000000000000, 0.6250000000000000000, -0.5649999999999999467 ) ) ;
#6 = CARTESIAN_POINT ( 'NONE',  ( 0.000000000000000000, 0.5900000000000000799, -0.03500000000000000333 ) ) ;
#7 = LINE ( 'NONE', #507, #324 ) ;
#8 = CARTESIAN_POINT ( 'NONE',  ( 0.9650000000000000799, -0.5900000000000000799, -0.03500000000000000333 ) ) ;
#9 = CARTESIAN_POINT ( 'NONE',  ( -0.9649999999999999689, 0.6250000000000000000, -0.03500000000000000333 ) ) ;
#10 = DIRECTION ( 'NONE',  ( 0.000000000000000000, 0.000000000000000000, -1.000000000000000000 ) ) ;
#11 = ADVANCED_FACE ( 'NONE', ( #133 ), #1214, .T. ) ;
#12 = CYLINDRICAL_SURFACE ( 'NONE', #1206, 0.03499999999999998251 ) ;
#13 = AXIS2_PLACEMENT_3D ( 'NONE', #857, #1275, #1282 ) ;
#14 = FACE_OUTER_BOUND ( 'NONE', #369, .T. ) ;
#15 = EDGE_LOOP ( 'NONE', ( #146, #724, #933, #750 ) ) ;
#16 = CARTESIAN_POINT ( 'NONE',  ( 0.9649999999999999689, -0.6250000000000000000, -0.03500000000000000333 ) ) ;
#17 = CARTESIAN_POINT ( 'NONE',  ( 1.000000000000000000, 0.5900000000000000799, 0.000000000000000000 ) ) ;
#18 =( GEOMETRIC_REPRESENTATION_CONTEXT ( 3 ) GLOBAL_UNCERTAINTY_ASSIGNED_CONTEXT ( ( #245 ) ) GLOBAL_UNIT_ASSIGNED_CONTEXT ( ( #1144, #708, #257 ) ) REPRESENTATION_CONTEXT ( 'NONE', 'WORKASPACE' ) );
#19 = DIRECTION ( 'NONE',  ( 1.000000000000000000, 0.000000000000000000, 0.000000000000000000 ) ) ;
#20 = ORIENTED_EDGE ( 'NONE', *, *, #782, .T. ) ;
#21 = DIRECTION ( 'NONE',  ( 1.000000000000000000, 0.000000000000000000, 0.000000000000000000 ) ) ;
#22 = ORIENTED_EDGE ( 'NONE', *, *, #815, .F. ) ;
#23 = DIRECTION ( 'NONE',  ( 0.000000000000000000, -1.000000000000000000, 0.000000000000000000 ) ) ;
#24 = CARTESIAN_POINT ( 'NONE',  ( 0.6500000000000000222, 0.5900000000000000799, 0.000000000000000000 ) ) ;
#25 = CARTESIAN_POINT ( 'NONE',  ( -0.9649999999999999689, -0.6250000000000000000, -0.5649999999999999467 ) ) ;
#26 = VECTOR ( 'NONE', #363, 1000.000000000000000 ) ;
#27 = ORIENTED_EDGE ( 'NONE', *, *, #321, .T. ) ;
#28 = SURFACE_STYLE_USAGE ( .BOTH. , #877 ) ;
#29 = VECTOR ( 'NONE', #144, 1000.000000000000000 ) ;
#30 = ADVANCED_FACE ( 'NONE', ( #1109 ), #653, .T. ) ;
#31 = EDGE_CURVE ( 'NONE', #1244, #737, #142, .T. ) ;
#32 = FACE_OUTER_BOUND ( 'NONE', #333, .T. ) ;
#33 = DIRECTION ( 'NONE',  ( 0.000000000000000000, 0.000000000000000000, 1.000000000000000000 ) ) ;
#34 = ORIENTED_EDGE ( 'NONE', *, *, #224, .F. ) ;
#35 =( NAMED_UNIT ( * ) PLANE_ANGLE_UNIT ( ) SI_UNIT ( $, .RADIAN. ) );
#36 = EDGE_LOOP ( 'NONE', ( #915, #794, #968, #1345 ) ) ;
#37 = CYLINDRICAL_SURFACE ( 'NONE', #370, 0.03500000000000000333 ) ;
#38 = EDGE_CURVE ( 'NONE', #1234, #1291, #779, .T. ) ;
#39 = DIRECTION ( 'NONE',  ( 1.000000000000000000, 0.000000000000000000, 0.000000000000000000 ) ) ;
#40 = ORIENTED_EDGE ( 'NONE', *, *, #652, .T. ) ;
#41 =( NAMED_UNIT ( * ) PLANE_ANGLE_UNIT ( ) SI_UNIT ( $, .RADIAN. ) );
#42 = CYLINDRICAL_SURFACE ( 'NONE', #733, 0.03499999999999998251 ) ;
#43 = DIRECTION ( 'NONE',  ( 0.000000000000000000, 0.000000000000000000, -1.000000000000000000 ) ) ;
#44 = EDGE_CURVE ( 'NONE', #397, #284, #914, .T. ) ;
#45 = ORIENTED_EDGE ( 'NONE', *, *, #970, .F. ) ;
#46 = AXIS2_PLACEMENT_3D ( 'NONE', #827, #291, #298 ) ;
#47 = EDGE_LOOP ( 'NONE', ( #771, #306, #105, #444 ) ) ;
#48 = CARTESIAN_POINT ( 'NONE',  ( 0.9650000000000000799, 0.6250000000000000000, 0.000000000000000000 ) ) ;
#49 = DIRECTION ( 'NONE',  ( -1.000000000000000000, 0.000000000000000000, 0.000000000000000000 ) ) ;
#50 = PLANE ( 'NONE',  #1172 ) ;
#51 = ORIENTED_EDGE ( 'NONE', *, *, #317, .T. ) ;
#52 = AXIS2_PLACEMENT_3D ( 'NONE', #382, #399, #110 ) ;
#53 = DIRECTION ( 'NONE',  ( -1.000000000000000000, 0.000000000000000000, 0.000000000000000000 ) ) ;
#54 = FACE_OUTER_BOUND ( 'NONE', #751, .T. ) ;
#55 = AXIS2_PLACEMENT_3D ( 'NONE', #586, #73, #149 ) ;
#56 = DIRECTION ( 'NONE',  ( -0.000000000000000000, 5.808225924029490716E-16, 1.000000000000000000 ) ) ;
#57 = PRODUCT_DEFINITION_CONTEXT ( 'detailed design', #962, 'design' ) ;
#58 = EDGE_CURVE ( 'NONE', #69, #1064, #173, .T. ) ;
#59 = EDGE_LOOP ( 'NONE', ( #263, #22, #40, #1341 ) ) ;
#60 = LINE ( 'NONE', #578, #1157 ) ;
#61 = SURFACE_STYLE_FILL_AREA ( #593 ) ;
#62 = CYLINDRICAL_SURFACE ( 'NONE', #603, 0.03499999999999998251 ) ;
#63 = ORIENTED_EDGE ( 'NONE', *, *, #716, .F. ) ;
#64 = VECTOR ( 'NONE', #1272, 1000.000000000000000 ) ;
#65 = LINE ( 'NONE', #684, #680 ) ;
#66 = CARTESIAN_POINT ( 'NONE',  ( 0.9650000000000000799, 0.6250000000000000000, -0.03499999999999998251 ) ) ;
#67 = DIRECTION ( 'NONE',  ( 0.000000000000000000, 0.000000000000000000, 1.000000000000000000 ) ) ;
#68 = VERTEX_POINT ( 'NONE', #1239 ) ;
#69 = VERTEX_POINT ( 'NONE', #899 ) ;
#70 = FACE_OUTER_BOUND ( 'NONE', #47, .T. ) ;
#71 = AXIS2_PLACEMENT_3D ( 'NONE', #389, #715, #1348 ) ;
#72 = EDGE_CURVE ( 'NONE', #1309, #74, #793, .T. ) ;
#73 = DIRECTION ( 'NONE',  ( 0.000000000000000000, -0.000000000000000000, 1.000000000000000000 ) ) ;
#74 = VERTEX_POINT ( 'NONE', #576 ) ;
#75 = ORIENTED_EDGE ( 'NONE', *, *, #446, .F. ) ;
#76 =( LENGTH_UNIT ( ) NAMED_UNIT ( * ) SI_UNIT ( .MILLI., .METRE. ) );
#77 = PRESENTATION_STYLE_ASSIGNMENT (( #381 ) ) ;
#78 = ORIENTED_EDGE ( 'NONE', *, *, #672, .F. ) ;
#79 = EDGE_CURVE ( 'NONE', #397, #280, #366, .T. ) ;
#80 = LINE ( 'NONE', #612, #986 ) ;
#81 = EDGE_CURVE ( 'NONE', #608, #762, #800, .T. ) ;
#82 = DIRECTION ( 'NONE',  ( -1.000000000000000000, 0.000000000000000000, 0.000000000000000000 ) ) ;
#83 = ORIENTED_EDGE ( 'NONE', *, *, #355, .F. ) ;
#84 = ORIENTED_EDGE ( 'NONE', *, *, #374, .F. ) ;
#85 = CIRCLE ( 'NONE', #549, 0.03500000000000000333 ) ;
#86 = DIRECTION ( 'NONE',  ( 1.000000000000000000, 0.000000000000000000, 0.000000000000000000 ) ) ;
#87 = VECTOR ( 'NONE', #1071, 1000.000000000000000 ) ;
#88 = CARTESIAN_POINT ( 'NONE',  ( -0.9649999999999999689, -0.6250000000000000000, -0.5649999999999999467 ) ) ;
#89 = LINE ( 'NONE', #1052, #1326 ) ;
#90 = VERTEX_POINT ( 'NONE', #271 ) ;
#91 = EDGE_CURVE ( 'NONE', #699, #1064, #538, .T. ) ;
#92 =( NAMED_UNIT ( * ) SI_UNIT ( $, .STERADIAN. ) SOLID_ANGLE_UNIT ( ) );
#93 = CARTESIAN_POINT ( 'NONE',  ( 0.6500000000000000222, -0.5899999999999999689, -0.03500000000000000333 ) ) ;
#94 = ORIENTED_EDGE ( 'NONE', *, *, #1200, .F. ) ;
#95 = CARTESIAN_POINT ( 'NONE',  ( -0.6500000000000000222, -0.5899999999999999689, 0.000000000000000000 ) ) ;
#96 = DIRECTION ( 'NONE',  ( 1.000000000000000000, 0.000000000000000000, 0.000000000000000000 ) ) ;
#97 = AXIS2_PLACEMENT_3D ( 'NONE', #768, #130, #679 ) ;
#98 = DIRECTION ( 'NONE',  ( -2.045664476387744262E-16, 0.000000000000000000, 1.000000000000000000 ) ) ;
#99 = ADVANCED_FACE ( 'NONE', ( #702 ), #1247, .T. ) ;
#100 = DIRECTION ( 'NONE',  ( -0.000000000000000000, -0.000000000000000000, -1.000000000000000000 ) ) ;
#101 = PLANE ( 'NONE',  #205 ) ;
#102 = VECTOR ( 'NONE', #855, 1000.000000000000000 ) ;
#103 = DIRECTION ( 'NONE',  ( -2.045664476387744262E-16, -0.000000000000000000, 1.000000000000000000 ) ) ;
#104 = DIRECTION ( 'NONE',  ( 0.000000000000000000, 0.000000000000000000, 1.000000000000000000 ) ) ;
#105 = ORIENTED_EDGE ( 'NONE', *, *, #383, .F. ) ;
#106 = FACE_OUTER_BOUND ( 'NONE', #764, .T. ) ;
#107 = CARTESIAN_POINT ( 'NONE',  ( -0.9649999999999999689, -0.6250000000000000000, -0.03500000000000000333 ) ) ;
#108 = ORIENTED_EDGE ( 'NONE', *, *, #321, .F. ) ;
#109 = CARTESIAN_POINT ( 'NONE',  ( -0.6500000000000000222, 0.6250000000000000000, -0.5649999999999999467 ) ) ;
#110 = DIRECTION ( 'NONE',  ( 1.000000000000000000, 0.000000000000000000, 0.000000000000000000 ) ) ;
#111 = DIRECTION ( 'NONE',  ( 1.000000000000000000, -0.000000000000000000, 0.000000000000000000 ) ) ;
#112 = CARTESIAN_POINT ( 'NONE',  ( -0.9649999999999999689, 0.6250000000000000000, -0.5649999999999999467 ) ) ;
#113 = ORIENTED_EDGE ( 'NONE', *, *, #840, .T. ) ;
#114 = CARTESIAN_POINT ( 'NONE',  ( 0.6500000000000000222, 0.6250000000000000000, -0.03499999999999998251 ) ) ;
#115 = DIRECTION ( 'NONE',  ( -1.000000000000000000, 0.000000000000000000, 0.000000000000000000 ) ) ;
#116 = CARTESIAN_POINT ( 'NONE',  ( 0.000000000000000000, -0.6250000000000000000, 0.000000000000000000 ) ) ;
#117 = ADVANCED_FACE ( 'NONE', ( #1140 ), #160, .T. ) ;
#118 = AXIS2_PLACEMENT_3D ( 'NONE', #555, #966, #443 ) ;
#119 = LINE ( 'NONE', #1187, #1271 ) ;
#120 = ORIENTED_EDGE ( 'NONE', *, *, #1001, .F. ) ;
#121 = DIRECTION ( 'NONE',  ( 0.000000000000000000, 0.000000000000000000, 1.000000000000000000 ) ) ;
#122 = DIRECTION ( 'NONE',  ( -0.000000000000000000, -1.000000000000000000, -0.000000000000000000 ) ) ;
#123 = DIRECTION ( 'NONE',  ( 0.000000000000000000, 0.000000000000000000, -1.000000000000000000 ) ) ;
#124 = ADVANCED_FACE ( 'NONE', ( #907 ), #1331, .F. ) ;
#125 = ADVANCED_FACE ( 'NONE', ( #580 ), #50, .T. ) ;
#126 = ORIENTED_EDGE ( 'NONE', *, *, #275, .T. ) ;
#127 = PRESENTATION_STYLE_ASSIGNMENT (( #28 ) ) ;
#128 = ADVANCED_FACE ( 'NONE', ( #253 ), #62, .T. ) ;
#129 = CARTESIAN_POINT ( 'NONE',  ( -0.9649999999999999689, 0.6250000000000000000, -0.5649999999999999467 ) ) ;
#130 = DIRECTION ( 'NONE',  ( -1.000000000000000000, -8.673617379884035472E-17, 0.000000000000000000 ) ) ;
#131 = LINE ( 'NONE', #537, #601 ) ;
#132 = AXIS2_PLACEMENT_3D ( 'NONE', #358, #256, #494 ) ;
#133 = FACE_OUTER_BOUND ( 'NONE', #1022, .T. ) ;
#134 = AXIS2_PLACEMENT_3D ( 'NONE', #431, #646, #1077 ) ;
#135 = EDGE_CURVE ( 'NONE', #1352, #608, #309, .T. ) ;
#136 = ORIENTED_EDGE ( 'NONE', *, *, #967, .T. ) ;
#137 = DIRECTION ( 'NONE',  ( 0.000000000000000000, 0.000000000000000000, -1.000000000000000000 ) ) ;
#138 = FACE_OUTER_BOUND ( 'NONE', #299, .T. ) ;
#139 = DIRECTION ( 'NONE',  ( 0.000000000000000000, 0.000000000000000000, 1.000000000000000000 ) ) ;
#140 = FILL_AREA_STYLE ('',( #458 ) ) ;
#141 = CIRCLE ( 'NONE', #805, 0.03500000000000000333 ) ;
#142 = CIRCLE ( 'NONE', #379, 0.03499999999999998251 ) ;
#143 = EDGE_CURVE ( 'NONE', #839, #737, #427, .T. ) ;
#144 = DIRECTION ( 'NONE',  ( -1.000000000000000000, 0.000000000000000000, 0.000000000000000000 ) ) ;
#145 = CARTESIAN_POINT ( 'NONE',  ( -0.6500000000000000222, 0.5900000000000000799, -0.5999999999999999778 ) ) ;
#146 = ORIENTED_EDGE ( 'NONE', *, *, #1314, .F. ) ;
#147 = CARTESIAN_POINT ( 'NONE',  ( -0.9649999999999999689, 0.6250000000000000000, -0.03500000000000000333 ) ) ;
#148 = CARTESIAN_POINT ( 'NONE',  ( 0.6500000000000000222, -0.5900000000000000799, -0.03500000000000000333 ) ) ;
#149 = DIRECTION ( 'NONE',  ( 1.000000000000000000, 0.000000000000000000, -0.000000000000000000 ) ) ;
#150 = ORIENTED_EDGE ( 'NONE', *, *, #1330, .T. ) ;
#151 = FACE_OUTER_BOUND ( 'NONE', #567, .T. ) ;
#152 = DIRECTION ( 'NONE',  ( 0.000000000000000000, 1.000000000000000000, 0.000000000000000000 ) ) ;
#153 = EDGE_CURVE ( 'NONE', #647, #436, #483, .T. ) ;
#154 = DIRECTION ( 'NONE',  ( -0.000000000000000000, -1.000000000000000000, -0.000000000000000000 ) ) ;
#155 = ORIENTED_EDGE ( 'NONE', *, *, #1160, .F. ) ;
#156 = VECTOR ( 'NONE', #49, 1000.000000000000000 ) ;
#157 = CARTESIAN_POINT ( 'NONE',  ( 0.9650000000000000799, 0.5900000000000000799, -0.03500000000000000333 ) ) ;
#158 = CYLINDRICAL_SURFACE ( 'NONE', #71, 0.03499999999999998251 ) ;
#159 = AXIS2_PLACEMENT_3D ( 'NONE', #1245, #191, #1040 ) ;
#160 = CYLINDRICAL_SURFACE ( 'NONE', #1213, 0.03500000000000000333 ) ;
#161 = EDGE_CURVE ( 'NONE', #788, #786, #266, .T. ) ;
#162 = VECTOR ( 'NONE', #832, 1000.000000000000000 ) ;
#163 = ORIENTED_EDGE ( 'NONE', *, *, #510, .F. ) ;
#164 = ADVANCED_FACE ( 'NONE', ( #168 ), #912, .T. ) ;
#165 = CARTESIAN_POINT ( 'NONE',  ( 1.000000000000000000, 0.5900000000000000799, -0.5649999999999999467 ) ) ;
#166 = FILL_AREA_STYLE_COLOUR ( '', #1236 ) ;
#167 = ORIENTED_EDGE ( 'NONE', *, *, #883, .T. ) ;
#168 = FACE_OUTER_BOUND ( 'NONE', #1047, .T. ) ;
#169 = ORIENTED_EDGE ( 'NONE', *, *, #510, .T. ) ;
#170 = ORIENTED_EDGE ( 'NONE', *, *, #996, .T. ) ;
#171 = DIRECTION ( 'NONE',  ( -1.000000000000000000, 0.000000000000000000, -0.000000000000000000 ) ) ;
#172 = DIRECTION ( 'NONE',  ( 1.000000000000000000, -0.000000000000000000, -0.000000000000000000 ) ) ;
#173 = LINE ( 'NONE', #1026, #989 ) ;
#174 = ORIENTED_EDGE ( 'NONE', *, *, #446, .T. ) ;
#175 = VERTEX_POINT ( 'NONE', #490 ) ;
#176 = DIRECTION ( 'NONE',  ( 0.000000000000000000, 0.000000000000000000, -1.000000000000000000 ) ) ;
#177 = EDGE_CURVE ( 'NONE', #698, #916, #628, .T. ) ;
#178 = SURFACE_SIDE_STYLE ('',( #1335 ) ) ;
#179 = EDGE_CURVE ( 'NONE', #698, #703, #141, .T. ) ;
#180 = AXIS2_PLACEMENT_3D ( 'NONE', #1083, #1303, #139 ) ;
#181 = ORIENTED_EDGE ( 'NONE', *, *, #1217, .F. ) ;
#182 = FACE_OUTER_BOUND ( 'NONE', #872, .T. ) ;
#183 = ORIENTED_EDGE ( 'NONE', *, *, #275, .F. ) ;
#184 = VECTOR ( 'NONE', #103, 1000.000000000000000 ) ;
#185 = ORIENTED_EDGE ( 'NONE', *, *, #341, .F. ) ;
#186 = LINE ( 'NONE', #824, #552 ) ;
#187 =( NAMED_UNIT ( * ) SI_UNIT ( $, .STERADIAN. ) SOLID_ANGLE_UNIT ( ) );
#188 = DIRECTION ( 'NONE',  ( 8.673617379884035472E-17, -1.000000000000000000, 0.000000000000000000 ) ) ;
#189 = EDGE_CURVE ( 'NONE', #703, #775, #80, .T. ) ;
#190 = ORIENTED_EDGE ( 'NONE', *, *, #294, .T. ) ;
#191 = DIRECTION ( 'NONE',  ( 0.000000000000000000, 1.000000000000000000, 0.000000000000000000 ) ) ;
#192 = CARTESIAN_POINT ( 'NONE',  ( -0.6500000000000000222, 0.5900000000000000799, -0.5649999999999999467 ) ) ;
#193 = CARTESIAN_POINT ( 'NONE',  ( 0.6500000000000000222, 0.6250000000000000000, -0.5649999999999999467 ) ) ;
#194 = DIRECTION ( 'NONE',  ( -0.000000000000000000, 0.000000000000000000, 1.000000000000000000 ) ) ;
#195 = ADVANCED_FACE ( 'NONE', ( #182 ), #1159, .F. ) ;
#196 = EDGE_CURVE ( 'NONE', #952, #376, #637, .T. ) ;
#197 = DIRECTION ( 'NONE',  ( 0.000000000000000000, 0.000000000000000000, -1.000000000000000000 ) ) ;
#198 =( NAMED_UNIT ( * ) PLANE_ANGLE_UNIT ( ) SI_UNIT ( $, .RADIAN. ) );
#199 =( NAMED_UNIT ( * ) SI_UNIT ( $, .STERADIAN. ) SOLID_ANGLE_UNIT ( ) );
#200 = DIRECTION ( 'NONE',  ( -1.000000000000000000, 0.000000000000000000, 0.000000000000000000 ) ) ;
#201 = CARTESIAN_POINT ( 'NONE',  ( -0.6499999999999999112, -0.5899999999999999689, 0.000000000000000000 ) ) ;
#202 = AXIS2_PLACEMENT_3D ( 'NONE', #1262, #96, #10 ) ;
#203 = DIRECTION ( 'NONE',  ( 0.000000000000000000, 0.000000000000000000, 1.000000000000000000 ) ) ;
#204 = LINE ( 'NONE', #634, #1349 ) ;
#205 = AXIS2_PLACEMENT_3D ( 'NONE', #932, #1260, #846 ) ;
#206 = CARTESIAN_POINT ( 'NONE',  ( 0.9650000000000000799, -0.6250000000000000000, -0.5649999999999999467 ) ) ;
#207 = FACE_OUTER_BOUND ( 'NONE', #268, .T. ) ;
#208 = LINE ( 'NONE', #1062, #239 ) ;
#209 = DIRECTION ( 'NONE',  ( 0.000000000000000000, 0.000000000000000000, -1.000000000000000000 ) ) ;
#210 = ORIENTED_EDGE ( 'NONE', *, *, #38, .F. ) ;
#211 = ADVANCED_FACE ( 'NONE', ( #1167 ), #945, .T. ) ;
#212 = DIRECTION ( 'NONE',  ( -1.000000000000000000, 0.000000000000000000, -0.000000000000000000 ) ) ;
#213 = CARTESIAN_POINT ( 'NONE',  ( 0.6500000000000000222, 0.6250000000000000000, -0.03500000000000000333 ) ) ;
#214 = VECTOR ( 'NONE', #1350, 1000.000000000000000 ) ;
#215 = CARTESIAN_POINT ( 'NONE',  ( -0.9649999999999999689, -0.6250000000000000000, -0.03500000000000000333 ) ) ;
#216 = DIRECTION ( 'NONE',  ( -1.000000000000000000, 0.000000000000000000, 0.000000000000000000 ) ) ;
#217 = PLANE ( 'NONE',  #134 ) ;
#218 = VERTEX_POINT ( 'NONE', #88 ) ;
#219 = ADVANCED_FACE ( 'NONE', ( #826 ), #1034, .T. ) ;
#220 = LINE ( 'NONE', #868, #906 ) ;
#221 = ADVANCED_FACE ( 'NONE', ( #1050 ), #619, .T. ) ;
#222 = LINE ( 'NONE', #848, #904 ) ;
#223 = CARTESIAN_POINT ( 'NONE',  ( 0.9650000000000000799, 0.5900000000000000799, -0.5999999999999999778 ) ) ;
#224 = EDGE_CURVE ( 'NONE', #465, #436, #450, .T. ) ;
#225 = DIRECTION ( 'NONE',  ( 0.000000000000000000, 0.000000000000000000, 1.000000000000000000 ) ) ;
#226 = AXIS2_PLACEMENT_3D ( 'NONE', #1198, #435, #1191 ) ;
#227 = VERTEX_POINT ( 'NONE', #201 ) ;
#228 = FACE_OUTER_BOUND ( 'NONE', #1223, .T. ) ;
#229 = PLANE ( 'NONE',  #711 ) ;
#230 = STYLED_ITEM ( 'NONE', ( #77 ), #533 ) ;
#231 = CARTESIAN_POINT ( 'NONE',  ( 0.9650000000000000799, 0.5900000000000000799, -0.5649999999999999467 ) ) ;
#232 = ORIENTED_EDGE ( 'NONE', *, *, #706, .F. ) ;
#233 = ADVANCED_FACE ( 'NONE', ( #842 ), #426, .F. ) ;
#234 = ORIENTED_EDGE ( 'NONE', *, *, #189, .F. ) ;
#235 = ORIENTED_EDGE ( 'NONE', *, *, #686, .T. ) ;
#236 = LINE ( 'NONE', #129, #1044 ) ;
#237 = DIRECTION ( 'NONE',  ( 0.000000000000000000, 0.000000000000000000, -1.000000000000000000 ) ) ;
#238 = ORIENTED_EDGE ( 'NONE', *, *, #1072, .T. ) ;
#239 = VECTOR ( 'NONE', #935, 1000.000000000000000 ) ;
#240 = ADVANCED_FACE ( 'NONE', ( #207 ), #1059, .T. ) ;
#241 = ADVANCED_FACE ( 'NONE', ( #739 ), #951, .T. ) ;
#242 = CARTESIAN_POINT ( 'NONE',  ( -0.9650000000000000799, 0.6250000000000000000, -0.03500000000000000333 ) ) ;
#243 = DIRECTION ( 'NONE',  ( 0.000000000000000000, -1.000000000000000000, 0.000000000000000000 ) ) ;
#244 = ORIENTED_EDGE ( 'NONE', *, *, #890, .T. ) ;
#245 = UNCERTAINTY_MEASURE_WITH_UNIT (LENGTH_MEASURE( 1.000000000000000082E-05 ), #1144, 'distance_accuracy_value', 'NONE');
#246 = AXIS2_PLACEMENT_3D ( 'NONE', #701, #803, #584 ) ;
#247 = PLANE ( 'NONE',  #798 ) ;
#248 = DIRECTION ( 'NONE',  ( 1.000000000000000000, 0.000000000000000000, 0.000000000000000000 ) ) ;
#249 = ORIENTED_EDGE ( 'NONE', *, *, #143, .F. ) ;
#250 = EDGE_LOOP ( 'NONE', ( #262, #452, #185, #416 ) ) ;
#251 = DIRECTION ( 'NONE',  ( 0.000000000000000000, -1.000000000000000000, 0.000000000000000000 ) ) ;
#252 = CARTESIAN_POINT ( 'NONE',  ( 0.9650000000000000799, -0.5899999999999999689, 0.000000000000000000 ) ) ;
#253 = FACE_OUTER_BOUND ( 'NONE', #710, .T. ) ;
#254 = VECTOR ( 'NONE', #486, 1000.000000000000000 ) ;
#255 = CIRCLE ( 'NONE', #554, 0.03499999999999998251 ) ;
#256 = DIRECTION ( 'NONE',  ( -1.000000000000000000, -8.673617379884035472E-17, 0.000000000000000000 ) ) ;
#257 =( NAMED_UNIT ( * ) SI_UNIT ( $, .STERADIAN. ) SOLID_ANGLE_UNIT ( ) );
#258 = EDGE_CURVE ( 'NONE', #1252, #1156, #1006, .T. ) ;
#259 = EDGE_LOOP ( 'NONE', ( #1152, #485, #163, #596 ) ) ;
#260 = DIRECTION ( 'NONE',  ( 0.000000000000000000, -1.000000000000000000, 0.000000000000000000 ) ) ;
#261 = EDGE_CURVE ( 'NONE', #227, #952, #1175, .T. ) ;
#262 = ORIENTED_EDGE ( 'NONE', *, *, #31, .T. ) ;
#263 = ORIENTED_EDGE ( 'NONE', *, *, #716, .T. ) ;
#264 = VECTOR ( 'NONE', #19, 1000.000000000000000 ) ;
#265 = CYLINDRICAL_SURFACE ( 'NONE', #439, 0.03499999999999998251 ) ;
#266 = LINE ( 'NONE', #696, #354 ) ;
#267 = CIRCLE ( 'NONE', #1060, 0.03499999999999998251 ) ;
#268 = EDGE_LOOP ( 'NONE', ( #982, #1258, #249, #602 ) ) ;
#269 = EDGE_LOOP ( 'NONE', ( #1249, #595, #1016, #558 ) ) ;
#270 = CYLINDRICAL_SURFACE ( 'NONE', #1299, 0.03500000000000001027 ) ;
#271 = CARTESIAN_POINT ( 'NONE',  ( -0.6500000000000000222, 0.5900000000000000799, 0.000000000000000000 ) ) ;
#272 = ORIENTED_EDGE ( 'NONE', *, *, #258, .T. ) ;
#273 = PRODUCT ( 'AC0805FR-0782KL', 'AC0805FR-0782KL', '', ( #776 ) ) ;
#274 = EDGE_CURVE ( 'NONE', #1141, #465, #1145, .T. ) ;
#275 = EDGE_CURVE ( 'NONE', #218, #591, #290, .T. ) ;
#276 = VECTOR ( 'NONE', #1068, 1000.000000000000000 ) ;
#277 = ORIENTED_EDGE ( 'NONE', *, *, #921, .F. ) ;
#278 = SURFACE_STYLE_USAGE ( .BOTH. , #403 ) ;
#279 = FILL_AREA_STYLE_COLOUR ( '', #360 ) ;
#280 = VERTEX_POINT ( 'NONE', #651 ) ;
#281 = CARTESIAN_POINT ( 'NONE',  ( 0.000000000000000000, 0.5900000000000000799, -0.5649999999999999467 ) ) ;
#282 = ORIENTED_EDGE ( 'NONE', *, *, #958, .T. ) ;
#283 = ORIENTED_EDGE ( 'NONE', *, *, #921, .T. ) ;
#284 = VERTEX_POINT ( 'NONE', #1081 ) ;
#285 = CARTESIAN_POINT ( 'NONE',  ( 0.9650000000000000799, 0.5900000000000000799, 0.000000000000000000 ) ) ;
#286 = AXIS2_PLACEMENT_3D ( 'NONE', #148, #774, #988 ) ;
#287 = CLOSED_SHELL ( 'NONE', ( #474, #1125, #233, #1178, #489, #740, #316, #741, #240, #1221, #1343, #1261, #164, #99, #1276, #128, #30, #984, #911, #509 ) ) ;
#288 = UNCERTAINTY_MEASURE_WITH_UNIT (LENGTH_MEASURE( 1.000000000000000082E-05 ), #76, 'distance_accuracy_value', 'NONE');
#289 = PRODUCT_DEFINITION_SHAPE ( 'NONE', 'NONE',  #1035 ) ;
#290 = LINE ( 'NONE', #25, #264 ) ;
#292 = ORIENTED_EDGE ( 'NONE', *, *, #782, .F. ) ;
#291 = DIRECTION ( 'NONE',  ( 0.000000000000000000, 1.000000000000000000, 0.000000000000000000 ) ) ;
#293 = ORIENTED_EDGE ( 'NONE', *, *, #1199, .F. ) ;
#294 = EDGE_CURVE ( 'NONE', #345, #588, #829, .T. ) ;
#295 = EDGE_CURVE ( 'NONE', #737, #1141, #862, .T. ) ;
#296 = LINE ( 'NONE', #1334, #1042 ) ;
#297 = DIRECTION ( 'NONE',  ( 0.000000000000000000, 0.000000000000000000, -1.000000000000000000 ) ) ;
#298 = DIRECTION ( 'NONE',  ( 1.000000000000000000, 0.000000000000000000, 0.000000000000000000 ) ) ;
#299 = EDGE_LOOP ( 'NONE', ( #550, #342, #1015, #1173 ) ) ;
#300 = LINE ( 'NONE', #1347, #905 ) ;
#301 = VECTOR ( 'NONE', #1295, 1000.000000000000000 ) ;
#302 = DIRECTION ( 'NONE',  ( 1.000000000000000000, 0.000000000000000000, -0.000000000000000000 ) ) ;
#303 = DIRECTION ( 'NONE',  ( 0.000000000000000000, 0.000000000000000000, 1.000000000000000000 ) ) ;
#304 = CARTESIAN_POINT ( 'NONE',  ( 0.9650000000000000799, -0.6250000000000000000, -0.5649999999999999467 ) ) ;
#305 = PRESENTATION_STYLE_ASSIGNMENT (( #1155 ) ) ;
#306 = ORIENTED_EDGE ( 'NONE', *, *, #1250, .F. ) ;
#307 = LINE ( 'NONE', #5, #925 ) ;
#308 = CARTESIAN_POINT ( 'NONE',  ( 0.9650000000000000799, 0.5900000000000000799, -0.5649999999999999467 ) ) ;
#309 = CIRCLE ( 'NONE', #1101, 0.03499999999999998251 ) ;
#310 = CARTESIAN_POINT ( 'NONE',  ( -0.6500000000000000222, 0.6250000000000000000, -0.03499999999999998251 ) ) ;
#311 = CARTESIAN_POINT ( 'NONE',  ( 0.000000000000000000, 0.5900000000000000799, -0.5649999999999999467 ) ) ;
#312 = ORIENTED_EDGE ( 'NONE', *, *, #939, .T. ) ;
#313 = CARTESIAN_POINT ( 'NONE',  ( 0.9650000000000000799, -0.5899999999999999689, -0.5649999999999999467 ) ) ;
#314 = DIRECTION ( 'NONE',  ( 1.000000000000000000, 0.000000000000000000, 0.000000000000000000 ) ) ;
#315 = DIRECTION ( 'NONE',  ( -2.045664476387744262E-16, 0.000000000000000000, 1.000000000000000000 ) ) ;
#316 = ADVANCED_FACE ( 'NONE', ( #658 ), #332, .F. ) ;
#317 = EDGE_CURVE ( 'NONE', #916, #432, #131, .T. ) ;
#318 = DIRECTION ( 'NONE',  ( 0.000000000000000000, 0.000000000000000000, -1.000000000000000000 ) ) ;
#319 = ORIENTED_EDGE ( 'NONE', *, *, #38, .T. ) ;
#320 = VECTOR ( 'NONE', #1066, 1000.000000000000000 ) ;
#321 = EDGE_CURVE ( 'NONE', #1240, #660, #1053, .T. ) ;
#322 = CARTESIAN_POINT ( 'NONE',  ( -0.9649999999999999689, 0.6250000000000000000, -0.03500000000000000333 ) ) ;
#323 = DIRECTION ( 'NONE',  ( -3.097720492815726673E-15, 0.000000000000000000, 1.000000000000000000 ) ) ;
#324 = VECTOR ( 'NONE', #400, 1000.000000000000000 ) ;
#325 = DIRECTION ( 'NONE',  ( 0.000000000000000000, -1.000000000000000000, 0.000000000000000000 ) ) ;
#326 = ORIENTED_EDGE ( 'NONE', *, *, #652, .F. ) ;
#327 = ORIENTED_EDGE ( 'NONE', *, *, #1330, .F. ) ;
#328 = DIRECTION ( 'NONE',  ( 1.000000000000000000, 0.000000000000000000, 0.000000000000000000 ) ) ;
#329 = ORIENTED_EDGE ( 'NONE', *, *, #686, .F. ) ;
#330 = LINE ( 'NONE', #766, #87 ) ;
#331 = DIRECTION ( 'NONE',  ( 1.000000000000000000, 0.000000000000000000, 0.000000000000000000 ) ) ;
#332 = PLANE ( 'NONE',  #118 ) ;
#333 = EDGE_LOOP ( 'NONE', ( #1300, #1294, #683, #136 ) ) ;
#334 = EDGE_LOOP ( 'NONE', ( #386, #807, #282, #356 ) ) ;
#335 = APPLICATION_PROTOCOL_DEFINITION ( 'draft international standard', 'automotive_design', 1998, #962 ) ;
#336 = CIRCLE ( 'NONE', #226, 0.03499999999999998251 ) ;
#337 = COLOUR_RGB ( '',0.8039215686274510109, 0.8039215686274510109, 0.8039215686274510109 ) ;
#338 = DIRECTION ( 'NONE',  ( -0.000000000000000000, -0.000000000000000000, -1.000000000000000000 ) ) ;
#339 = CARTESIAN_POINT ( 'NONE',  ( 0.9649999999999999689, 0.6250000000000000000, -0.03500000000000000333 ) ) ;
#340 = VECTOR ( 'NONE', #1238, 1000.000000000000000 ) ;
#341 = EDGE_CURVE ( 'NONE', #1240, #1141, #336, .T. ) ;
#342 = ORIENTED_EDGE ( 'NONE', *, *, #456, .F. ) ;
#343 =( NAMED_UNIT ( * ) SI_UNIT ( $, .STERADIAN. ) SOLID_ANGLE_UNIT ( ) );
#344 =( GEOMETRIC_REPRESENTATION_CONTEXT ( 3 ) GLOBAL_UNCERTAINTY_ASSIGNED_CONTEXT ( ( #1105 ) ) GLOBAL_UNIT_ASSIGNED_CONTEXT ( ( #645, #41, #343 ) ) REPRESENTATION_CONTEXT ( 'NONE', 'WORKASPACE' ) );
#345 = VERTEX_POINT ( 'NONE', #223 ) ;
#346 = DIRECTION ( 'NONE',  ( 0.000000000000000000, -1.000000000000000000, 0.000000000000000000 ) ) ;
#347 = DIRECTION ( 'NONE',  ( 1.000000000000000000, 0.000000000000000000, 2.045664476387744262E-16 ) ) ;
#348 = EDGE_LOOP ( 'NONE', ( #622, #1324, #697, #120 ) ) ;
#349 = CARTESIAN_POINT ( 'NONE',  ( 0.000000000000000000, 0.000000000000000000, 0.000000000000000000 ) ) ;
#350 = LINE ( 'NONE', #48, #26 ) ;
#351 = CARTESIAN_POINT ( 'NONE',  ( 0.6500000000000000222, 0.6250000000000000000, -0.03500000000000000333 ) ) ;
#352 = ORIENTED_EDGE ( 'NONE', *, *, #4, .F. ) ;
#353 = ORIENTED_EDGE ( 'NONE', *, *, #633, .F. ) ;
#354 = VECTOR ( 'NONE', #1132, 1000.000000000000000 ) ;
#355 = EDGE_CURVE ( 'NONE', #345, #1352, #870, .T. ) ;
#356 = ORIENTED_EDGE ( 'NONE', *, *, #1116, .T. ) ;
#357 = AXIS2_PLACEMENT_3D ( 'NONE', #496, #56, #820 ) ;
#358 = CARTESIAN_POINT ( 'NONE',  ( -0.6499999999999999112, -0.5900000000000000799, -0.03500000000000000333 ) ) ;
#359 = FACE_OUTER_BOUND ( 'NONE', #885, .T. ) ;
#360 = COLOUR_RGB ( '',0.2862745098039215508, 0.2862745098039215508, 0.2862745098039215508 ) ;
#361 = DIRECTION ( 'NONE',  ( -0.000000000000000000, 1.000000000000000000, -0.000000000000000000 ) ) ;
#362 = EDGE_CURVE ( 'NONE', #1151, #68, #761, .T. ) ;
#363 = DIRECTION ( 'NONE',  ( -0.000000000000000000, 1.000000000000000000, -0.000000000000000000 ) ) ;
#364 = ADVANCED_FACE ( 'NONE', ( #644 ), #1074, .T. ) ;
#365 = ADVANCED_FACE ( 'NONE', ( #138 ), #668, .T. ) ;
#366 = LINE ( 'NONE', #392, #1147 ) ;
#367 = AXIS2_PLACEMENT_3D ( 'NONE', #1229, #1004, #1017 ) ;
#368 = UNCERTAINTY_MEASURE_WITH_UNIT (LENGTH_MEASURE( 1.000000000000000082E-05 ), #1266, 'distance_accuracy_value', 'NONE');
#369 = EDGE_LOOP ( 'NONE', ( #928, #1279, #210, #312 ) ) ;
#370 = AXIS2_PLACEMENT_3D ( 'NONE', #242, #453, #667 ) ;
#371 = ORIENTED_EDGE ( 'NONE', *, *, #1356, .F. ) ;
#372 = CARTESIAN_POINT ( 'NONE',  ( -0.6500000000000000222, 0.6250000000000000000, 0.000000000000000000 ) ) ;
#373 = CARTESIAN_POINT ( 'NONE',  ( 0.9649999999999999689, 0.6250000000000000000, -0.03500000000000000333 ) ) ;
#374 = EDGE_CURVE ( 'NONE', #952, #1291, #425, .T. ) ;
#375 = CARTESIAN_POINT ( 'NONE',  ( -0.6500000000000000222, 0.6250000000000000000, -0.5649999999999999467 ) ) ;
#376 = VERTEX_POINT ( 'NONE', #874 ) ;
#377 = AXIS2_PLACEMENT_3D ( 'NONE', #116, #243, #565 ) ;
#378 = ORIENTED_EDGE ( 'NONE', *, *, #996, .F. ) ;
#379 = AXIS2_PLACEMENT_3D ( 'NONE', #563, #990, #457 ) ;
#380 = DIRECTION ( 'NONE',  ( 0.000000000000000000, 0.000000000000000000, -1.000000000000000000 ) ) ;
#381 = SURFACE_STYLE_USAGE ( .BOTH. , #178 ) ;
#382 = CARTESIAN_POINT ( 'NONE',  ( -0.9650000000000000799, -0.5900000000000000799, -0.03500000000000000333 ) ) ;
#383 = EDGE_CURVE ( 'NONE', #90, #786, #1076, .T. ) ;
#384 = AXIS2_PLACEMENT_3D ( 'NONE', #373, #918, #812 ) ;
#385 = ORIENTED_EDGE ( 'NONE', *, *, #1328, .F. ) ;
#386 = ORIENTED_EDGE ( 'NONE', *, *, #1308, .F. ) ;
#387 = MECHANICAL_DESIGN_GEOMETRIC_PRESENTATION_REPRESENTATION (  '', ( #1131 ), #344 ) ;
#388 = DIRECTION ( 'NONE',  ( 1.000000000000000000, 0.000000000000000000, -0.000000000000000000 ) ) ;
#389 = CARTESIAN_POINT ( 'NONE',  ( -0.9650000000000000799, 0.6250000000000000000, -0.5649999999999999467 ) ) ;
#390 = APPLICATION_CONTEXT ( 'automotive_design' ) ;
#391 = CIRCLE ( 'NONE', #1241, 0.03499999999999998251 ) ;
#392 = CARTESIAN_POINT ( 'NONE',  ( 1.000000000000000000, 0.6250000000000000000, -0.03499999999999998251 ) ) ;
#393 = ORIENTED_EDGE ( 'NONE', *, *, #706, .T. ) ;
#394 = ORIENTED_EDGE ( 'NONE', *, *, #341, .T. ) ;
#395 = EDGE_CURVE ( 'NONE', #1188, #1352, #1170, .T. ) ;
#396 = CIRCLE ( 'NONE', #1186, 0.03499999999999998251 ) ;
#397 = VERTEX_POINT ( 'NONE', #995 ) ;
#398 = DIRECTION ( 'NONE',  ( -1.000000000000000000, 0.000000000000000000, 0.000000000000000000 ) ) ;
#399 = DIRECTION ( 'NONE',  ( 0.000000000000000000, 1.000000000000000000, 0.000000000000000000 ) ) ;
#400 = DIRECTION ( 'NONE',  ( 1.000000000000000000, -0.000000000000000000, -0.000000000000000000 ) ) ;
#401 = ORIENTED_EDGE ( 'NONE', *, *, #161, .F. ) ;
#402 = EDGE_LOOP ( 'NONE', ( #244, #577, #635, #491 ) ) ;
#403 = SURFACE_SIDE_STYLE ('',( #1251 ) ) ;
#404 = ORIENTED_EDGE ( 'NONE', *, *, #1072, .F. ) ;
#405 = AXIS2_PLACEMENT_3D ( 'NONE', #6, #521, #104 ) ;
#406 = CARTESIAN_POINT ( 'NONE',  ( 1.000000000000000000, 0.6250000000000000000, 0.000000000000000000 ) ) ;
#407 = CARTESIAN_POINT ( 'NONE',  ( -0.9650000000000000799, 0.5900000000000000799, 0.000000000000000000 ) ) ;
#408 = VERTEX_POINT ( 'NONE', #339 ) ;
#409 = PRESENTATION_LAYER_ASSIGNMENT (  '', '', ( #540 ) ) ;
#410 = CARTESIAN_POINT ( 'NONE',  ( -0.9650000000000000799, -0.5900000000000000799, -0.5649999999999999467 ) ) ;
#411 = EDGE_CURVE ( 'NONE', #998, #74, #1098, .T. ) ;
#412 = DIRECTION ( 'NONE',  ( 0.000000000000000000, 0.000000000000000000, -1.000000000000000000 ) ) ;
#413 = DIRECTION ( 'NONE',  ( 0.000000000000000000, 0.000000000000000000, -1.000000000000000000 ) ) ;
#414 = DIRECTION ( 'NONE',  ( -0.000000000000000000, 1.000000000000000000, -0.000000000000000000 ) ) ;
#415 = FACE_OUTER_BOUND ( 'NONE', #1037, .T. ) ;
#416 = ORIENTED_EDGE ( 'NONE', *, *, #1353, .F. ) ;
#417 = AXIS2_PLACEMENT_3D ( 'NONE', #1070, #541, #1194 ) ;
#418 = DIRECTION ( 'NONE',  ( 0.000000000000000000, -1.000000000000000000, 0.000000000000000000 ) ) ;
#419 = UNCERTAINTY_MEASURE_WITH_UNIT (LENGTH_MEASURE( 1.000000000000000082E-05 ), #924, 'distance_accuracy_value', 'NONE');
#420 = DIRECTION ( 'NONE',  ( 0.000000000000000000, 1.000000000000000000, 0.000000000000000000 ) ) ;
#421 = CARTESIAN_POINT ( 'NONE',  ( -0.9650000000000000799, -0.5899999999999999689, -0.5999999999999999778 ) ) ;
#422 = DIRECTION ( 'NONE',  ( 0.000000000000000000, 1.000000000000000000, 0.000000000000000000 ) ) ;
#423 = ORIENTED_EDGE ( 'NONE', *, *, #362, .T. ) ;
#424 = CARTESIAN_POINT ( 'NONE',  ( -0.9650000000000000799, 0.5900000000000000799, -0.5999999999999999778 ) ) ;
#425 = CIRCLE ( 'NONE', #286, 0.03500000000000000333 ) ;
#426 = PLANE ( 'NONE',  #690 ) ;
#427 = CIRCLE ( 'NONE', #937, 0.03500000000000000333 ) ;
#428 = EDGE_CURVE ( 'NONE', #1244, #839, #1361, .T. ) ;
#429 = CARTESIAN_POINT ( 'NONE',  ( 0.9649999999999999689, -0.6250000000000000000, -0.03500000000000000333 ) ) ;
#430 =( GEOMETRIC_REPRESENTATION_CONTEXT ( 3 ) GLOBAL_UNCERTAINTY_ASSIGNED_CONTEXT ( ( #368 ) ) GLOBAL_UNIT_ASSIGNED_CONTEXT ( ( #1266, #735, #199 ) ) REPRESENTATION_CONTEXT ( 'NONE', 'WORKASPACE' ) );
#431 = CARTESIAN_POINT ( 'NONE',  ( 0.6500000000000000222, 0.6250000000000000000, -0.5670000000000000595 ) ) ;
#432 = VERTEX_POINT ( 'NONE', #252 ) ;
#433 = CARTESIAN_POINT ( 'NONE',  ( 0.6500000000000000222, 0.5900000000000000799, -0.5649999999999999467 ) ) ;
#434 = CARTESIAN_POINT ( 'NONE',  ( 0.9650000000000000799, 0.5900000000000000799, -0.03500000000000000333 ) ) ;
#435 = DIRECTION ( 'NONE',  ( 0.000000000000000000, 0.000000000000000000, -1.000000000000000000 ) ) ;
#436 = VERTEX_POINT ( 'NONE', #1197 ) ;
#437 = DIRECTION ( 'NONE',  ( 0.000000000000000000, 0.000000000000000000, -1.000000000000000000 ) ) ;
#438 = ORIENTED_EDGE ( 'NONE', *, *, #901, .F. ) ;
#439 = AXIS2_PLACEMENT_3D ( 'NONE', #692, #592, #700 ) ;
#440 = DIRECTION ( 'NONE',  ( 1.000000000000000000, 0.000000000000000000, 0.000000000000000000 ) ) ;
#441 = CARTESIAN_POINT ( 'NONE',  ( -1.000000000000000000, 0.6250000000000000000, -0.5999999999999999778 ) ) ;
#442 = AXIS2_PLACEMENT_3D ( 'NONE', #433, #1202, #137 ) ;
#443 = DIRECTION ( 'NONE',  ( 0.000000000000000000, 0.000000000000000000, 1.000000000000000000 ) ) ;
#444 = ORIENTED_EDGE ( 'NONE', *, *, #1242, .F. ) ;
#445 = ORIENTED_EDGE ( 'NONE', *, *, #633, .T. ) ;
#446 = EDGE_CURVE ( 'NONE', #1291, #788, #454, .T. ) ;
#447 = ADVANCED_FACE ( 'NONE', ( #359 ), #784, .T. ) ;
#448 = FACE_OUTER_BOUND ( 'NONE', #809, .T. ) ;
#449 = CARTESIAN_POINT ( 'NONE',  ( -0.9650000000000000799, 0.6250000000000000000, -0.5999999999999999778 ) ) ;
#450 = LINE ( 'NONE', #506, #913 ) ;
#451 = VECTOR ( 'NONE', #1232, 1000.000000000000000 ) ;
#452 = ORIENTED_EDGE ( 'NONE', *, *, #295, .T. ) ;
#453 = DIRECTION ( 'NONE',  ( 0.000000000000000000, -1.000000000000000000, 0.000000000000000000 ) ) ;
#454 = LINE ( 'NONE', #1115, #156 ) ;
#455 = CIRCLE ( 'NONE', #631, 0.03500000000000000333 ) ;
#456 = EDGE_CURVE ( 'NONE', #819, #591, #476, .T. ) ;
#457 = DIRECTION ( 'NONE',  ( 1.000000000000000000, 0.000000000000000000, 0.000000000000000000 ) ) ;
#458 = FILL_AREA_STYLE_COLOUR ( '', #1263 ) ;
#459 = AXIS2_PLACEMENT_3D ( 'NONE', #410, #604, #86 ) ;
#460 = CARTESIAN_POINT ( 'NONE',  ( 0.9649999999999999689, 0.6250000000000000000, -0.03500000000000000333 ) ) ;
#461 = FACE_OUTER_BOUND ( 'NONE', #36, .T. ) ;
#462 = AXIS2_PLACEMENT_3D ( 'NONE', #979, #23, #773 ) ;
#463 = VERTEX_POINT ( 'NONE', #145 ) ;
#464 = SURFACE_STYLE_FILL_AREA ( #140 ) ;
#465 = VERTEX_POINT ( 'NONE', #778 ) ;
#466 = CARTESIAN_POINT ( 'NONE',  ( 0.6500000000000000222, -0.5899999999999999689, 0.000000000000000000 ) ) ;
#467 = DIRECTION ( 'NONE',  ( 0.000000000000000000, 1.000000000000000000, -0.000000000000000000 ) ) ;
#468 = DIRECTION ( 'NONE',  ( 1.000000000000000000, 0.000000000000000000, 0.000000000000000000 ) ) ;
#469 = ADVANCED_FACE ( 'NONE', ( #461 ), #553, .F. ) ;
#470 = AXIS2_PLACEMENT_3D ( 'NONE', #746, #194, #934 ) ;
#471 = ORIENTED_EDGE ( 'NONE', *, *, #673, .F. ) ;
#472 = AXIS2_PLACEMENT_3D ( 'NONE', #1002, #1222, #1342 ) ;
#473 = EDGE_CURVE ( 'NONE', #1252, #660, #1212, .T. ) ;
#474 = ADVANCED_FACE ( 'NONE', ( #54 ), #229, .F. ) ;
#475 = DIRECTION ( 'NONE',  ( 0.000000000000000000, 1.000000000000000000, 0.000000000000000000 ) ) ;
#476 = LINE ( 'NONE', #1100, #513 ) ;
#477 = CIRCLE ( 'NONE', #879, 0.03499999999999998251 ) ;
#478 = DIRECTION ( 'NONE',  ( 0.000000000000000000, 0.000000000000000000, -1.000000000000000000 ) ) ;
#479 = ORIENTED_EDGE ( 'NONE', *, *, #673, .T. ) ;
#480 = ADVANCED_FACE ( 'NONE', ( #888 ), #560, .F. ) ;
#481 = DIRECTION ( 'NONE',  ( -0.000000000000000000, -0.000000000000000000, 1.000000000000000000 ) ) ;
#482 = ADVANCED_BREP_SHAPE_REPRESENTATION ( 'AC0805FR-0782KL', ( #523, #992, #543, #533, #898 ), #836 ) ;
#483 = LINE ( 'NONE', #375, #451 ) ;
#484 = VECTOR ( 'NONE', #1177, 1000.000000000000000 ) ;
#485 = ORIENTED_EDGE ( 'NONE', *, *, #781, .F. ) ;
#486 = DIRECTION ( 'NONE',  ( 0.000000000000000000, -1.000000000000000000, 0.000000000000000000 ) ) ;
#487 = EDGE_CURVE ( 'NONE', #1156, #1133, #980, .T. ) ;
#488 = DIRECTION ( 'NONE',  ( 0.000000000000000000, 0.000000000000000000, -1.000000000000000000 ) ) ;
#489 = ADVANCED_FACE ( 'NONE', ( #664 ), #1096, .F. ) ;
#490 = CARTESIAN_POINT ( 'NONE',  ( 0.9650000000000000799, 0.5900000000000000799, 0.000000000000000000 ) ) ;
#491 = ORIENTED_EDGE ( 'NONE', *, *, #632, .F. ) ;
#492 = CIRCLE ( 'NONE', #246, 0.03499999999999998251 ) ;
#493 = EDGE_LOOP ( 'NONE', ( #1046, #772, #277, #712 ) ) ;
#494 = DIRECTION ( 'NONE',  ( 0.000000000000000000, -1.000000000000000000, 0.000000000000000000 ) ) ;
#495 = CARTESIAN_POINT ( 'NONE',  ( -0.9649999999999999689, 0.6250000000000000000, -0.03500000000000000333 ) ) ;
#496 = CARTESIAN_POINT ( 'NONE',  ( 0.9650000000000000799, 0.5900000000000000799, -0.03499999999999998251 ) ) ;
#497 = DIRECTION ( 'NONE',  ( -0.000000000000000000, -1.000000000000000000, -0.000000000000000000 ) ) ;
#498 = ADVANCED_FACE ( 'NONE', ( #1121 ), #270, .T. ) ;
#499 = CIRCLE ( 'NONE', #132, 0.03499999999999998251 ) ;
#500 = DIRECTION ( 'NONE',  ( -1.000000000000000000, 0.000000000000000000, -0.000000000000000000 ) ) ;
#501 = VERTEX_POINT ( 'NONE', #1032 ) ;
#502 =( GEOMETRIC_REPRESENTATION_CONTEXT ( 3 ) GLOBAL_UNCERTAINTY_ASSIGNED_CONTEXT ( ( #288 ) ) GLOBAL_UNIT_ASSIGNED_CONTEXT ( ( #76, #198, #92 ) ) REPRESENTATION_CONTEXT ( 'NONE', 'WORKASPACE' ) );
#503 = ORIENTED_EDGE ( 'NONE', *, *, #970, .T. ) ;
#504 = CARTESIAN_POINT ( 'NONE',  ( 0.6500000000000000222, -0.5899999999999999689, 0.000000000000000000 ) ) ;
#505 = DIRECTION ( 'NONE',  ( 0.000000000000000000, 0.000000000000000000, 1.000000000000000000 ) ) ;
#506 = CARTESIAN_POINT ( 'NONE',  ( -0.6500000000000000222, -0.6250000000000000000, -0.5649999999999999467 ) ) ;
#507 = CARTESIAN_POINT ( 'NONE',  ( -0.6500000000000000222, 0.5900000000000000799, -0.5999999999999999778 ) ) ;
#508 = ORIENTED_EDGE ( 'NONE', *, *, #473, .F. ) ;
#509 = ADVANCED_FACE ( 'NONE', ( #685 ), #158, .T. ) ;
#510 = EDGE_CURVE ( 'NONE', #1290, #280, #492, .T. ) ;
#511 = PRODUCT_RELATED_PRODUCT_CATEGORY ( 'part', '', ( #273 ) ) ;
#512 = DIRECTION ( 'NONE',  ( 0.000000000000000000, 0.000000000000000000, -1.000000000000000000 ) ) ;
#513 = VECTOR ( 'NONE', #882, 1000.000000000000000 ) ;
#514 = DIRECTION ( 'NONE',  ( -0.000000000000000000, -0.000000000000000000, 1.000000000000000000 ) ) ;
#515 = DIRECTION ( 'NONE',  ( -0.000000000000000000, -1.000000000000000000, -0.000000000000000000 ) ) ;
#516 = FACE_OUTER_BOUND ( 'NONE', #250, .T. ) ;
#517 = MECHANICAL_DESIGN_GEOMETRIC_PRESENTATION_REPRESENTATION (  '', ( #540 ), #430 ) ;
#518 = CARTESIAN_POINT ( 'NONE',  ( 0.9650000000000000799, 0.6250000000000000000, -0.5649999999999999467 ) ) ;
#519 = EDGE_CURVE ( 'NONE', #69, #1355, #654, .T. ) ;
#520 = CARTESIAN_POINT ( 'NONE',  ( 0.9649999999999999689, -0.6250000000000000000, -0.03500000000000000333 ) ) ;
#521 = DIRECTION ( 'NONE',  ( -1.000000000000000000, 0.000000000000000000, 0.000000000000000000 ) ) ;
#522 = CARTESIAN_POINT ( 'NONE',  ( -1.000000000000000000, 0.5900000000000000799, -0.5999999999999999778 ) ) ;
#523 = MANIFOLD_SOLID_BREP ( 'Fillet3', #787 ) ;
#524 = DIRECTION ( 'NONE',  ( -1.000000000000000000, -0.000000000000000000, -0.000000000000000000 ) ) ;
#525 = AXIS2_PLACEMENT_3D ( 'NONE', #1149, #388, #940 ) ;
#526 = ADVANCED_FACE ( 'NONE', ( #693 ), #1329, .F. ) ;
#527 = EDGE_CURVE ( 'NONE', #69, #737, #1138, .T. ) ;
#528 = PLANE ( 'NONE',  #1325 ) ;
#529 = DIRECTION ( 'NONE',  ( -1.000000000000000000, 0.000000000000000000, -0.000000000000000000 ) ) ;
#530 = CARTESIAN_POINT ( 'NONE',  ( -0.6500000000000000222, -0.5899999999999999689, -0.5649999999999999467 ) ) ;
#531 = CARTESIAN_POINT ( 'NONE',  ( -0.6500000000000000222, -0.6250000000000000000, -0.03500000000000000333 ) ) ;
#532 = EDGE_LOOP ( 'NONE', ( #27, #508, #272, #329 ) ) ;
#533 = MANIFOLD_SOLID_BREP ( 'Fillet2', #744 ) ;
#534 = DIRECTION ( 'NONE',  ( -0.000000000000000000, -1.000000000000000000, -0.000000000000000000 ) ) ;
#535 = CARTESIAN_POINT ( 'NONE',  ( 0.9650000000000000799, -0.5899999999999999689, -0.03499999999999998251 ) ) ;
#536 = VECTOR ( 'NONE', #314, 1000.000000000000000 ) ;
#537 = CARTESIAN_POINT ( 'NONE',  ( 1.000000000000000000, -0.5899999999999999689, 0.000000000000000000 ) ) ;
#538 = CIRCLE ( 'NONE', #472, 0.03500000000000000333 ) ;
#539 = ORIENTED_EDGE ( 'NONE', *, *, #135, .F. ) ;
#540 = STYLED_ITEM ( 'NONE', ( #305 ), #543 ) ;
#541 = DIRECTION ( 'NONE',  ( 0.000000000000000000, -1.000000000000000000, 0.000000000000000000 ) ) ;
#542 = ORIENTED_EDGE ( 'NONE', *, *, #672, .T. ) ;
#543 = MANIFOLD_SOLID_BREP ( 'Boss-Extrude2', #963 ) ;
#544 = CARTESIAN_POINT ( 'NONE',  ( -0.9650000000000000799, -0.5900000000000000799, -0.03500000000000000333 ) ) ;
#545 = FACE_OUTER_BOUND ( 'NONE', #625, .T. ) ;
#546 = DIRECTION ( 'NONE',  ( -2.045664476387744262E-16, -0.000000000000000000, -1.000000000000000000 ) ) ;
#547 = CARTESIAN_POINT ( 'NONE',  ( 0.000000000000000000, 0.5900000000000000799, -0.03500000000000000333 ) ) ;
#548 = EDGE_CURVE ( 'NONE', #1290, #775, #1340, .T. ) ;
#549 = AXIS2_PLACEMENT_3D ( 'NONE', #434, #636, #323 ) ;
#550 = ORIENTED_EDGE ( 'NONE', *, *, #590, .F. ) ;
#551 = CARTESIAN_POINT ( 'NONE',  ( 0.6500000000000000222, 0.6250000000000000000, -0.5999999999999999778 ) ) ;
#552 = VECTOR ( 'NONE', #176, 1000.000000000000000 ) ;
#553 = PLANE ( 'NONE',  #785 ) ;
#554 = AXIS2_PLACEMENT_3D ( 'NONE', #987, #338, #994 ) ;
#555 = CARTESIAN_POINT ( 'NONE',  ( -0.6500000000000000222, 0.6250000000000000000, -0.5999999999999999778 ) ) ;
#556 = ORIENTED_EDGE ( 'NONE', *, *, #79, .T. ) ;
#557 =( NAMED_UNIT ( * ) SI_UNIT ( $, .STERADIAN. ) SOLID_ANGLE_UNIT ( ) );
#558 = ORIENTED_EDGE ( 'NONE', *, *, #274, .T. ) ;
#559 = CARTESIAN_POINT ( 'NONE',  ( -0.9649999999999999689, 0.6250000000000000000, -0.03500000000000000333 ) ) ;
#560 = PLANE ( 'NONE',  #1210 ) ;
#561 = MECHANICAL_DESIGN_GEOMETRIC_PRESENTATION_REPRESENTATION (  '', ( #1051 ), #502 ) ;
#562 = AXIS2_PLACEMENT_3D ( 'NONE', #1311, #1000, #1318 ) ;
#563 = CARTESIAN_POINT ( 'NONE',  ( -0.9650000000000000799, 0.5900000000000000799, -0.03500000000000000333 ) ) ;
#564 = LINE ( 'NONE', #460, #301 ) ;
#565 = DIRECTION ( 'NONE',  ( 0.000000000000000000, -0.000000000000000000, -1.000000000000000000 ) ) ;
#566 = CIRCLE ( 'NONE', #1215, 0.03499999999999998251 ) ;
#567 = EDGE_LOOP ( 'NONE', ( #908, #238, #63 ) ) ;
#568 = ORIENTED_EDGE ( 'NONE', *, *, #815, .T. ) ;
#569 = ORIENTED_EDGE ( 'NONE', *, *, #1218, .T. ) ;
#570 = CIRCLE ( 'NONE', #1203, 0.03500000000000000333 ) ;
#571 = FACE_OUTER_BOUND ( 'NONE', #1134, .T. ) ;
#572 = CARTESIAN_POINT ( 'NONE',  ( -1.000000000000000000, -0.5899999999999999689, -0.5999999999999999778 ) ) ;
#573 = EDGE_CURVE ( 'NONE', #775, #916, #1011, .T. ) ;
#574 = ADVANCED_FACE ( 'NONE', ( #415 ), #101, .F. ) ;
#575 = VECTOR ( 'NONE', #315, 1000.000000000000000 ) ;
#576 = CARTESIAN_POINT ( 'NONE',  ( 0.6500000000000000222, -0.6250000000000000000, -0.5649999999999999467 ) ) ;
#577 = ORIENTED_EDGE ( 'NONE', *, *, #1356, .T. ) ;
#578 = CARTESIAN_POINT ( 'NONE',  ( 0.9649999999999999689, 0.6250000000000000000, -0.03500000000000000333 ) ) ;
#579 = DIRECTION ( 'NONE',  ( 0.000000000000000000, 0.000000000000000000, -1.000000000000000000 ) ) ;
#580 = FACE_OUTER_BOUND ( 'NONE', #1021, .T. ) ;
#581 = VECTOR ( 'NONE', #325, 1000.000000000000000 ) ;
#582 = ORIENTED_EDGE ( 'NONE', *, *, #258, .F. ) ;
#583 = DIRECTION ( 'NONE',  ( 1.000000000000000000, 0.000000000000000000, 0.000000000000000000 ) ) ;
#584 = DIRECTION ( 'NONE',  ( 1.000000000000000000, 0.000000000000000000, 5.808225924029490716E-16 ) ) ;
#585 =( GEOMETRIC_REPRESENTATION_CONTEXT ( 3 ) GLOBAL_UNCERTAINTY_ASSIGNED_CONTEXT ( ( #419 ) ) GLOBAL_UNIT_ASSIGNED_CONTEXT ( ( #924, #825, #187 ) ) REPRESENTATION_CONTEXT ( 'NONE', 'WORKASPACE' ) );
#586 = CARTESIAN_POINT ( 'NONE',  ( 1.000000000000000000, 0.6250000000000000000, -0.5999999999999999778 ) ) ;
#587 = ORIENTED_EDGE ( 'NONE', *, *, #487, .F. ) ;
#588 = VERTEX_POINT ( 'NONE', #518 ) ;
#589 = EDGE_CURVE ( 'NONE', #463, #647, #566, .T. ) ;
#590 = EDGE_CURVE ( 'NONE', #591, #1151, #1358, .T. ) ;
#591 = VERTEX_POINT ( 'NONE', #206 ) ;
#592 = DIRECTION ( 'NONE',  ( -1.000000000000000000, 0.000000000000000000, 0.000000000000000000 ) ) ;
#593 = FILL_AREA_STYLE ('',( #166 ) ) ;
#594 = ORIENTED_EDGE ( 'NONE', *, *, #1315, .T. ) ;
#595 = ORIENTED_EDGE ( 'NONE', *, *, #153, .F. ) ;
#596 = ORIENTED_EDGE ( 'NONE', *, *, #1243, .F. ) ;
#597 = DIRECTION ( 'NONE',  ( -0.000000000000000000, -1.000000000000000000, -0.000000000000000000 ) ) ;
#598 = SURFACE_STYLE_USAGE ( .BOTH. , #1230 ) ;
#599 = DIRECTION ( 'NONE',  ( 0.000000000000000000, 0.000000000000000000, -1.000000000000000000 ) ) ;
#600 = ORIENTED_EDGE ( 'NONE', *, *, #143, .T. ) ;
#601 = VECTOR ( 'NONE', #974, 1000.000000000000000 ) ;
#602 = ORIENTED_EDGE ( 'NONE', *, *, #718, .F. ) ;
#603 = AXIS2_PLACEMENT_3D ( 'NONE', #1014, #67, #1227 ) ;
#604 = DIRECTION ( 'NONE',  ( 0.000000000000000000, 1.000000000000000000, 0.000000000000000000 ) ) ;
#605 = DIRECTION ( 'NONE',  ( 0.000000000000000000, -1.000000000000000000, 0.000000000000000000 ) ) ;
#606 = CARTESIAN_POINT ( 'NONE',  ( 0.6500000000000000222, 0.6250000000000000000, 0.000000000000000000 ) ) ;
#607 = COLOUR_RGB ( '',0.9607843137254902244, 0.9607843137254902244, 0.9607843137254902244 ) ;
#608 = VERTEX_POINT ( 'NONE', #1166 ) ;
#609 = ORIENTED_EDGE ( 'NONE', *, *, #890, .F. ) ;
#610 = LINE ( 'NONE', #624, #1181 ) ;
#611 = ORIENTED_EDGE ( 'NONE', *, *, #58, .T. ) ;
#612 = CARTESIAN_POINT ( 'NONE',  ( 0.6500000000000000222, 0.6250000000000000000, -0.03500000000000000333 ) ) ;
#613 = AXIS2_PLACEMENT_3D ( 'NONE', #157, #475, #583 ) ;
#614 = CARTESIAN_POINT ( 'NONE',  ( -1.000000000000000000, 0.5900000000000000799, -0.03500000000000000333 ) ) ;
#615 = ORIENTED_EDGE ( 'NONE', *, *, #688, .T. ) ;
#616 = CIRCLE ( 'NONE', #1161, 0.03500000000000000333 ) ;
#617 = CARTESIAN_POINT ( 'NONE',  ( 0.9650000000000000799, -0.5899999999999999689, -0.03500000000000000333 ) ) ;
#618 = DIRECTION ( 'NONE',  ( 0.000000000000000000, 0.000000000000000000, -1.000000000000000000 ) ) ;
#619 = CYLINDRICAL_SURFACE ( 'NONE', #202, 0.03500000000000000333 ) ;
#621 = EDGE_LOOP ( 'NONE', ( #113, #821, #1142, #1265 ) ) ;
#620 = FACE_OUTER_BOUND ( 'NONE', #641, .T. ) ;
#622 = ORIENTED_EDGE ( 'NONE', *, *, #91, .F. ) ;
#623 = EDGE_CURVE ( 'NONE', #1188, #608, #1085, .T. ) ;
#624 = CARTESIAN_POINT ( 'NONE',  ( -1.000000000000000000, 0.6250000000000000000, -0.03499999999999998251 ) ) ;
#625 = EDGE_LOOP ( 'NONE', ( #1321, #594, #1180, #1312 ) ) ;
#626 = AXIS2_PLACEMENT_3D ( 'NONE', #1005, #467, #1296 ) ;
#627 = LINE ( 'NONE', #193, #102 ) ;
#628 = LINE ( 'NONE', #1150, #1316 ) ;
#629 = EDGE_LOOP ( 'NONE', ( #283, #169, #326 ) ) ;
#630 = CARTESIAN_POINT ( 'NONE',  ( 0.6500000000000000222, -0.6250000000000000000, -0.03499999999999998251 ) ) ;
#631 = AXIS2_PLACEMENT_3D ( 'NONE', #950, #738, #412 ) ;
#632 = EDGE_CURVE ( 'NONE', #762, #397, #944, .T. ) ;
#633 = EDGE_CURVE ( 'NONE', #1309, #588, #627, .T. ) ;
#634 = CARTESIAN_POINT ( 'NONE',  ( 0.6500000000000000222, 0.5900000000000000799, 0.000000000000000000 ) ) ;
#635 = ORIENTED_EDGE ( 'NONE', *, *, #44, .F. ) ;
#636 = DIRECTION ( 'NONE',  ( -0.000000000000000000, -1.000000000000000000, -0.000000000000000000 ) ) ;
#637 = LINE ( 'NONE', #606, #743 ) ;
#638 = SPHERICAL_SURFACE ( 'NONE', #46, 0.03500000000000000333 ) ;
#639 = AXIS2_PLACEMENT_3D ( 'NONE', #860, #1306, #212 ) ;
#640 = DIRECTION ( 'NONE',  ( -1.000000000000000000, 0.000000000000000000, -0.000000000000000000 ) ) ;
#641 = EDGE_LOOP ( 'NONE', ( #1086, #600, #1165 ) ) ;
#642 = DIRECTION ( 'NONE',  ( -1.000000000000000000, 0.000000000000000000, 0.000000000000000000 ) ) ;
#643 = DIRECTION ( 'NONE',  ( -0.000000000000000000, -0.000000000000000000, 1.000000000000000000 ) ) ;
#644 = FACE_OUTER_BOUND ( 'NONE', #955, .T. ) ;
#645 =( LENGTH_UNIT ( ) NAMED_UNIT ( * ) SI_UNIT ( .MILLI., .METRE. ) );
#646 = DIRECTION ( 'NONE',  ( 1.000000000000000000, 0.000000000000000000, -0.000000000000000000 ) ) ;
#647 = VERTEX_POINT ( 'NONE', #869 ) ;
#648 = PLANE ( 'NONE',  #639 ) ;
#649 = DIRECTION ( 'NONE',  ( -1.000000000000000000, 0.000000000000000000, 0.000000000000000000 ) ) ;
#650 = AXIS2_PLACEMENT_3D ( 'NONE', #231, #981, #123 ) ;
#651 = CARTESIAN_POINT ( 'NONE',  ( 1.000000000000000000, -0.5899999999999999689, -0.03499999999999998251 ) ) ;
#652 = EDGE_CURVE ( 'NONE', #432, #280, #790, .T. ) ;
#653 = CYLINDRICAL_SURFACE ( 'NONE', #180, 0.03499999999999998251 ) ;
#654 = CIRCLE ( 'NONE', #1320, 0.03500000000000000333 ) ;
#655 = ORIENTED_EDGE ( 'NONE', *, *, #632, .T. ) ;
#656 = LINE ( 'NONE', #551, #756 ) ;
#657 = DIRECTION ( 'NONE',  ( 1.000000000000000000, 0.000000000000000000, 0.000000000000000000 ) ) ;
#658 = FACE_OUTER_BOUND ( 'NONE', #15, .T. ) ;
#659 = EDGE_CURVE ( 'NONE', #1141, #660, #477, .T. ) ;
#660 = VERTEX_POINT ( 'NONE', #424 ) ;
#661 = EDGE_CURVE ( 'NONE', #1252, #465, #267, .T. ) ;
#662 = ORIENTED_EDGE ( 'NONE', *, *, #81, .F. ) ;
#663 = CARTESIAN_POINT ( 'NONE',  ( -1.000000000000000000, -0.5899999999999999689, -0.5649999999999999467 ) ) ;
#664 = FACE_OUTER_BOUND ( 'NONE', #722, .T. ) ;
#665 = VECTOR ( 'NONE', #98, 1000.000000000000000 ) ;
#666 = ORIENTED_EDGE ( 'NONE', *, *, #4, .T. ) ;
#667 = DIRECTION ( 'NONE',  ( 0.000000000000000000, 0.000000000000000000, -1.000000000000000000 ) ) ;
#668 = PLANE ( 'NONE',  #1255 ) ;
#669 = AXIS2_PLACEMENT_3D ( 'NONE', #1226, #1013, #897 ) ;
#670 = DIRECTION ( 'NONE',  ( 0.000000000000000000, -1.000000000000000000, 0.000000000000000000 ) ) ;
#671 = VECTOR ( 'NONE', #670, 1000.000000000000000 ) ;
#672 = EDGE_CURVE ( 'NONE', #501, #1133, #455, .T. ) ;
#673 = EDGE_CURVE ( 'NONE', #1352, #998, #1287, .T. ) ;
#674 = DIRECTION ( 'NONE',  ( -1.000000000000000000, 0.000000000000000000, -0.000000000000000000 ) ) ;
#675 = CARTESIAN_POINT ( 'NONE',  ( 0.9650000000000000799, -0.5900000000000000799, -0.5649999999999999467 ) ) ;
#676 = EDGE_LOOP ( 'NONE', ( #615, #293, #353, #817 ) ) ;
#677 = ORIENTED_EDGE ( 'NONE', *, *, #362, .F. ) ;
#678 = LINE ( 'NONE', #1322, #1289 ) ;
#679 = DIRECTION ( 'NONE',  ( 0.000000000000000000, -1.000000000000000000, 0.000000000000000000 ) ) ;
#680 = VECTOR ( 'NONE', #795, 1000.000000000000000 ) ;
#681 = AXIS2_PLACEMENT_3D ( 'NONE', #971, #21, #437 ) ;
#682 = DIRECTION ( 'NONE',  ( -1.000000000000000000, 0.000000000000000000, 0.000000000000000000 ) ) ;
#683 = ORIENTED_EDGE ( 'NONE', *, *, #822, .T. ) ;
#684 = CARTESIAN_POINT ( 'NONE',  ( 0.9649999999999999689, 0.6250000000000000000, -0.03500000000000000333 ) ) ;
#685 = FACE_OUTER_BOUND ( 'NONE', #532, .T. ) ;
#686 = EDGE_CURVE ( 'NONE', #1240, #1156, #307, .T. ) ;
#687 = DIRECTION ( 'NONE',  ( 0.000000000000000000, 0.000000000000000000, 1.000000000000000000 ) ) ;
#688 = EDGE_CURVE ( 'NONE', #74, #1188, #861, .T. ) ;
#689 = ORIENTED_EDGE ( 'NONE', *, *, #355, .T. ) ;
#690 = AXIS2_PLACEMENT_3D ( 'NONE', #719, #1269, #303 ) ;
#691 = EDGE_LOOP ( 'NONE', ( #1029, #1359, #1204, #889 ) ) ;
#692 = CARTESIAN_POINT ( 'NONE',  ( 1.000000000000000000, -0.5899999999999999689, -0.5649999999999999467 ) ) ;
#693 = FACE_OUTER_BOUND ( 'NONE', #1126, .T. ) ;
#694 = ORIENTED_EDGE ( 'NONE', *, *, #822, .F. ) ;
#695 = VECTOR ( 'NONE', #514, 1000.000000000000000 ) ;
#696 = CARTESIAN_POINT ( 'NONE',  ( -0.6500000000000000222, 0.6250000000000000000, -0.03499999999999998251 ) ) ;
#697 = ORIENTED_EDGE ( 'NONE', *, *, #1091, .F. ) ;
#698 = VERTEX_POINT ( 'NONE', #24 ) ;
#699 = VERTEX_POINT ( 'NONE', #95 ) ;
#700 = DIRECTION ( 'NONE',  ( 0.000000000000000000, 0.000000000000000000, 1.000000000000000000 ) ) ;
#701 = CARTESIAN_POINT ( 'NONE',  ( 0.9650000000000000799, -0.5900000000000000799, -0.03500000000000000333 ) ) ;
#702 = FACE_OUTER_BOUND ( 'NONE', #1298, .T. ) ;
#703 = VERTEX_POINT ( 'NONE', #213 ) ;
#704 = EDGE_LOOP ( 'NONE', ( #732, #75, #84, #830 ) ) ;
#705 = ORIENTED_EDGE ( 'NONE', *, *, #428, .F. ) ;
#706 = EDGE_CURVE ( 'NONE', #408, #736, #965, .T. ) ;
#707 = DIRECTION ( 'NONE',  ( 1.000000000000000000, -0.000000000000000000, 0.000000000000000000 ) ) ;
#708 =( NAMED_UNIT ( * ) PLANE_ANGLE_UNIT ( ) SI_UNIT ( $, .RADIAN. ) );
#709 = CARTESIAN_POINT ( 'NONE',  ( 0.000000000000000000, -0.5900000000000000799, -0.03500000000000000333 ) ) ;
#710 = EDGE_LOOP ( 'NONE', ( #1259, #587, #45, #327 ) ) ;
#711 = AXIS2_PLACEMENT_3D ( 'NONE', #1088, #331, #1302 ) ;
#712 = ORIENTED_EDGE ( 'NONE', *, *, #317, .F. ) ;
#713 = VECTOR ( 'NONE', #1123, 1000.000000000000000 ) ;
#714 = DIRECTION ( 'NONE',  ( 0.000000000000000000, 0.000000000000000000, 1.000000000000000000 ) ) ;
#715 = DIRECTION ( 'NONE',  ( 0.000000000000000000, -1.000000000000000000, 0.000000000000000000 ) ) ;
#716 = EDGE_CURVE ( 'NONE', #397, #175, #85, .T. ) ;
#717 = EDGE_CURVE ( 'NONE', #1355, #699, #222, .T. ) ;
#718 = EDGE_CURVE ( 'NONE', #1355, #839, #1049, .T. ) ;
#719 = CARTESIAN_POINT ( 'NONE',  ( -0.6500000000000000222, 0.6250000000000000000, -0.03500000000000000333 ) ) ;
#720 = MECHANICAL_DESIGN_GEOMETRIC_PRESENTATION_REPRESENTATION (  '', ( #230 ), #585 ) ;
#722 = EDGE_LOOP ( 'NONE', ( #150, #1153, #1285, #1075 ) ) ;
#721 = DIRECTION ( 'NONE',  ( 0.000000000000000000, 0.000000000000000000, 1.000000000000000000 ) ) ;
#723 = EDGE_LOOP ( 'NONE', ( #1280, #816, #689, #479 ) ) ;
#724 = ORIENTED_EDGE ( 'NONE', *, *, #589, .T. ) ;
#725 = FILL_AREA_STYLE_COLOUR ( '', #337 ) ;
#726 = FILL_AREA_STYLE ('',( #1164 ) ) ;
#727 = ORIENTED_EDGE ( 'NONE', *, *, #1243, .T. ) ;
#728 = CARTESIAN_POINT ( 'NONE',  ( -0.9649999999999999689, 0.6250000000000000000, -0.03500000000000000333 ) ) ;
#729 = CARTESIAN_POINT ( 'NONE',  ( 0.6500000000000000222, 0.5900000000000000799, -0.03500000000000000333 ) ) ;
#730 = AXIS2_PLACEMENT_3D ( 'NONE', #441, #1158, #302 ) ;
#731 = LINE ( 'NONE', #1162, #575 ) ;
#732 = ORIENTED_EDGE ( 'NONE', *, *, #765, .F. ) ;
#733 = AXIS2_PLACEMENT_3D ( 'NONE', #752, #887, #642 ) ;
#734 = PRESENTATION_STYLE_ASSIGNMENT (( #278 ) ) ;
#735 =( NAMED_UNIT ( * ) PLANE_ANGLE_UNIT ( ) SI_UNIT ( $, .RADIAN. ) );
#736 = VERTEX_POINT ( 'NONE', #728 ) ;
#737 = VERTEX_POINT ( 'NONE', #9 ) ;
#738 = DIRECTION ( 'NONE',  ( 0.000000000000000000, -1.000000000000000000, 0.000000000000000000 ) ) ;
#739 = FACE_OUTER_BOUND ( 'NONE', #1048, .T. ) ;
#740 = ADVANCED_FACE ( 'NONE', ( #1174 ), #528, .F. ) ;
#741 = ADVANCED_FACE ( 'NONE', ( #545 ), #973, .F. ) ;
#742 = LINE ( 'NONE', #834, #276 ) ;
#743 = VECTOR ( 'NONE', #833, 1000.000000000000000 ) ;
#744 = CLOSED_SHELL ( 'NONE', ( #1171, #219, #985, #1025, #117, #902 ) ) ;
#745 = DIRECTION ( 'NONE',  ( 0.000000000000000000, 0.000000000000000000, 1.000000000000000000 ) ) ;
#746 = CARTESIAN_POINT ( 'NONE',  ( -0.9649999999999999689, 0.6250000000000000000, -0.03500000000000000333 ) ) ;
#747 = LINE ( 'NONE', #310, #1018 ) ;
#748 = EDGE_CURVE ( 'NONE', #736, #68, #296, .T. ) ;
#749 = FACE_OUTER_BOUND ( 'NONE', #676, .T. ) ;
#750 = ORIENTED_EDGE ( 'NONE', *, *, #1354, .T. ) ;
#751 = EDGE_LOOP ( 'NONE', ( #1338, #235, #1139, #801 ) ) ;
#752 = CARTESIAN_POINT ( 'NONE',  ( 0.9650000000000000799, -0.5899999999999999689, -0.5999999999999999778 ) ) ;
#753 = DIRECTION ( 'NONE',  ( 0.000000000000000000, 0.000000000000000000, 1.000000000000000000 ) ) ;
#754 = CARTESIAN_POINT ( 'NONE',  ( 0.9650000000000000799, 0.6250000000000000000, -0.5999999999999999778 ) ) ;
#755 = CARTESIAN_POINT ( 'NONE',  ( -0.6500000000000000222, 0.6250000000000000000, -0.5999999999999999778 ) ) ;
#756 = VECTOR ( 'NONE', #534, 1000.000000000000000 ) ;
#757 = PLANE ( 'NONE',  #1292 ) ;
#758 = ORIENTED_EDGE ( 'NONE', *, *, #688, .F. ) ;
#759 = DIRECTION ( 'NONE',  ( -0.000000000000000000, 0.000000000000000000, 1.000000000000000000 ) ) ;
#760 = DIRECTION ( 'NONE',  ( -1.000000000000000000, -0.000000000000000000, -0.000000000000000000 ) ) ;
#761 = LINE ( 'NONE', #215, #1122 ) ;
#762 = VERTEX_POINT ( 'NONE', #165 ) ;
#763 = FACE_OUTER_BOUND ( 'NONE', #895, .T. ) ;
#764 = EDGE_LOOP ( 'NONE', ( #655, #556, #1020, #1110 ) ) ;
#765 = EDGE_CURVE ( 'NONE', #788, #227, #499, .T. ) ;
#766 = CARTESIAN_POINT ( 'NONE',  ( -0.6500000000000000222, 0.6250000000000000000, -0.5649999999999999467 ) ) ;
#767 = ADVANCED_FACE ( 'NONE', ( #151 ), #811, .T. ) ;
#768 = CARTESIAN_POINT ( 'NONE',  ( -0.6500000000000000222, 0.5900000000000000799, -0.03500000000000000333 ) ) ;
#769 = AXIS2_PLACEMENT_3D ( 'NONE', #770, #1089, #1184 ) ;
#770 = CARTESIAN_POINT ( 'NONE',  ( -0.9650000000000000799, 0.5900000000000000799, -0.5649999999999999467 ) ) ;
#771 = ORIENTED_EDGE ( 'NONE', *, *, #939, .F. ) ;
#772 = ORIENTED_EDGE ( 'NONE', *, *, #548, .F. ) ;
#773 = DIRECTION ( 'NONE',  ( 0.000000000000000000, -0.000000000000000000, -1.000000000000000000 ) ) ;
#774 = DIRECTION ( 'NONE',  ( 1.000000000000000000, 0.000000000000000000, -0.000000000000000000 ) ) ;
#775 = VERTEX_POINT ( 'NONE', #1237 ) ;
#776 = PRODUCT_CONTEXT ( 'NONE', #390, 'mechanical' ) ;
#777 = PLANE ( 'NONE',  #1246 ) ;
#778 = CARTESIAN_POINT ( 'NONE',  ( -0.9650000000000000799, -0.6250000000000000000, -0.5649999999999999467 ) ) ;
#779 = LINE ( 'NONE', #1209, #671 ) ;
#780 = SHAPE_DEFINITION_REPRESENTATION ( #289, #482 ) ;
#781 = EDGE_CURVE ( 'NONE', #280, #608, #678, .T. ) ;
#782 = EDGE_CURVE ( 'NONE', #284, #703, #65, .T. ) ;
#783 = CYLINDRICAL_SURFACE ( 'NONE', #1065, 0.03500000000000000333 ) ;
#784 = SPHERICAL_SURFACE ( 'NONE', #893, 0.03500000000000000333 ) ;
#785 = AXIS2_PLACEMENT_3D ( 'NONE', #351, #248, #579 ) ;
#786 = VERTEX_POINT ( 'NONE', #1114 ) ;
#787 = CLOSED_SHELL ( 'NONE', ( #526, #469, #195, #1366, #124, #480, #1008, #574, #1084, #1054, #796, #241, #447, #11, #938, #1233, #221, #767, #1082, #498 ) ) ;
#788 = VERTEX_POINT ( 'NONE', #917 ) ;
#789 = VERTEX_POINT ( 'NONE', #1012 ) ;
#790 = CIRCLE ( 'NONE', #969, 0.03500000000000001027 ) ;
#791 = DIRECTION ( 'NONE',  ( 8.673617379884035472E-17, -1.000000000000000000, 0.000000000000000000 ) ) ;
#792 = CARTESIAN_POINT ( 'NONE',  ( 0.6500000000000000222, -0.5899999999999999689, -0.5649999999999999467 ) ) ;
#793 = LINE ( 'NONE', #1323, #713 ) ;
#794 = ORIENTED_EDGE ( 'NONE', *, *, #573, .T. ) ;
#795 = DIRECTION ( 'NONE',  ( -1.000000000000000000, 0.000000000000000000, 0.000000000000000000 ) ) ;
#796 = ADVANCED_FACE ( 'NONE', ( #1317 ), #265, .T. ) ;
#797 = FILL_AREA_STYLE ('',( #279 ) ) ;
#798 = AXIS2_PLACEMENT_3D ( 'NONE', #147, #171, #1219 ) ;
#799 = AXIS2_PLACEMENT_3D ( 'NONE', #559, #121, #1087 ) ;
#800 = LINE ( 'NONE', #1007, #854 ) ;
#801 = ORIENTED_EDGE ( 'NONE', *, *, #919, .T. ) ;
#802 = CARTESIAN_POINT ( 'NONE',  ( -0.9650000000000000799, 0.5900000000000000799, 0.000000000000000000 ) ) ;
#803 = DIRECTION ( 'NONE',  ( -5.808225924029490716E-16, 0.000000000000000000, 1.000000000000000000 ) ) ;
#804 = CARTESIAN_POINT ( 'NONE',  ( -0.9649999999999999689, 0.6250000000000000000, -0.5649999999999999467 ) ) ;
#805 = AXIS2_PLACEMENT_3D ( 'NONE', #729, #1360, #413 ) ;
#806 = AXIS2_PLACEMENT_3D ( 'NONE', #406, #297, #529 ) ;
#807 = ORIENTED_EDGE ( 'NONE', *, *, #748, .F. ) ;
#808 = ORIENTED_EDGE ( 'NONE', *, *, #383, .T. ) ;
#809 = EDGE_LOOP ( 'NONE', ( #1235, #1106, #319, #174 ) ) ;
#810 = AXIS2_PLACEMENT_3D ( 'NONE', #1055, #100, #398 ) ;
#811 = SPHERICAL_SURFACE ( 'NONE', #613, 0.03500000000000000333 ) ;
#812 = DIRECTION ( 'NONE',  ( 1.000000000000000000, 0.000000000000000000, -0.000000000000000000 ) ) ;
#813 = STYLED_ITEM ( 'NONE', ( #1024 ), #523 ) ;
#814 = CARTESIAN_POINT ( 'NONE',  ( -0.9650000000000000799, 0.5900000000000000799, -0.03500000000000000333 ) ) ;
#815 = EDGE_CURVE ( 'NONE', #432, #175, #350, .T. ) ;
#816 = ORIENTED_EDGE ( 'NONE', *, *, #1010, .T. ) ;
#817 = ORIENTED_EDGE ( 'NONE', *, *, #72, .T. ) ;
#818 = CARTESIAN_POINT ( 'NONE',  ( -0.9649999999999999689, -0.6250000000000000000, -0.03500000000000000333 ) ) ;
#819 = VERTEX_POINT ( 'NONE', #1129 ) ;
#820 = DIRECTION ( 'NONE',  ( 0.000000000000000000, -1.000000000000000000, 5.808225924029490716E-16 ) ) ;
#821 = ORIENTED_EDGE ( 'NONE', *, *, #261, .T. ) ;
#822 = EDGE_CURVE ( 'NONE', #839, #501, #896, .T. ) ;
#823 = ORIENTED_EDGE ( 'NONE', *, *, #395, .T. ) ;
#824 = CARTESIAN_POINT ( 'NONE',  ( -0.9649999999999999689, 0.6250000000000000000, -0.03500000000000000333 ) ) ;
#825 =( NAMED_UNIT ( * ) PLANE_ANGLE_UNIT ( ) SI_UNIT ( $, .RADIAN. ) );
#826 = FACE_OUTER_BOUND ( 'NONE', #1253, .T. ) ;
#827 = CARTESIAN_POINT ( 'NONE',  ( -0.9650000000000000799, 0.5900000000000000799, -0.03500000000000000333 ) ) ;
#828 = ORIENTED_EDGE ( 'NONE', *, *, #548, .T. ) ;
#829 = CIRCLE ( 'NONE', #650, 0.03499999999999998251 ) ;
#830 = ORIENTED_EDGE ( 'NONE', *, *, #261, .F. ) ;
#831 = DIRECTION ( 'NONE',  ( 1.000000000000000000, 0.000000000000000000, -0.000000000000000000 ) ) ;
#832 = DIRECTION ( 'NONE',  ( -1.000000000000000000, 0.000000000000000000, 0.000000000000000000 ) ) ;
#833 = DIRECTION ( 'NONE',  ( -0.000000000000000000, 1.000000000000000000, -0.000000000000000000 ) ) ;
#834 = CARTESIAN_POINT ( 'NONE',  ( -0.9650000000000000799, -0.6250000000000000000, -0.5649999999999999467 ) ) ;
#835 = ORIENTED_EDGE ( 'NONE', *, *, #527, .F. ) ;
#836 =( GEOMETRIC_REPRESENTATION_CONTEXT ( 3 ) GLOBAL_UNCERTAINTY_ASSIGNED_CONTEXT ( ( #856 ) ) GLOBAL_UNIT_ASSIGNED_CONTEXT ( ( #976, #35, #557 ) ) REPRESENTATION_CONTEXT ( 'NONE', 'WORKASPACE' ) );
#837 = FACE_OUTER_BOUND ( 'NONE', #1039, .T. ) ;
#838 = SURFACE_STYLE_FILL_AREA ( #726 ) ;
#839 = VERTEX_POINT ( 'NONE', #802 ) ;
#840 = EDGE_CURVE ( 'NONE', #90, #227, #910, .T. ) ;
#841 = DIRECTION ( 'NONE',  ( -1.000000000000000000, 0.000000000000000000, -0.000000000000000000 ) ) ;
#842 = FACE_OUTER_BOUND ( 'NONE', #691, .T. ) ;
#843 = CARTESIAN_POINT ( 'NONE',  ( 0.6500000000000000222, 0.6250000000000000000, -0.5649999999999999467 ) ) ;
#844 = VECTOR ( 'NONE', #524, 1000.000000000000000 ) ;
#845 = LINE ( 'NONE', #107, #844 ) ;
#846 = DIRECTION ( 'NONE',  ( 2.045664476387744262E-16, 0.000000000000000000, -1.000000000000000000 ) ) ;
#847 = ORIENTED_EDGE ( 'NONE', *, *, #590, .T. ) ;
#848 = CARTESIAN_POINT ( 'NONE',  ( -0.6500000000000000222, 0.6250000000000000000, 0.000000000000000000 ) ) ;
#849 = DIRECTION ( 'NONE',  ( 1.000000000000000000, 0.000000000000000000, 0.000000000000000000 ) ) ;
#850 = LINE ( 'NONE', #304, #665 ) ;
#851 = VECTOR ( 'NONE', #546, 1000.000000000000000 ) ;
#852 = DIRECTION ( 'NONE',  ( 1.000000000000000000, 0.000000000000000000, 0.000000000000000000 ) ) ;
#853 = ORIENTED_EDGE ( 'NONE', *, *, #748, .T. ) ;
#854 = VECTOR ( 'NONE', #361, 1000.000000000000000 ) ;
#855 = DIRECTION ( 'NONE',  ( 1.000000000000000000, 0.000000000000000000, 0.000000000000000000 ) ) ;
#856 = UNCERTAINTY_MEASURE_WITH_UNIT (LENGTH_MEASURE( 1.000000000000000082E-05 ), #976, 'distance_accuracy_value', 'NONE');
#857 = CARTESIAN_POINT ( 'NONE',  ( -0.9650000000000000799, -0.5899999999999999689, -0.5649999999999999467 ) ) ;
#858 = LINE ( 'NONE', #755, #64 ) ;
#859 = CARTESIAN_POINT ( 'NONE',  ( 0.6500000000000000222, 0.6250000000000000000, -0.5649999999999999467 ) ) ;
#860 = CARTESIAN_POINT ( 'NONE',  ( -1.000000000000000000, 0.6250000000000000000, 0.000000000000000000 ) ) ;
#861 = LINE ( 'NONE', #1268, #864 ) ;
#862 = LINE ( 'NONE', #1288, #851 ) ;
#863 = EDGE_LOOP ( 'NONE', ( #677, #438, #393, #853 ) ) ;
#864 = VECTOR ( 'NONE', #1183, 1000.000000000000000 ) ;
#865 = ADVANCED_FACE ( 'NONE', ( #1225 ), #247, .T. ) ;
#866 = CIRCLE ( 'NONE', #681, 0.03500000000000000333 ) ;
#867 = FACE_OUTER_BOUND ( 'NONE', #629, .T. ) ;
#868 = CARTESIAN_POINT ( 'NONE',  ( 0.9650000000000000799, 0.6250000000000000000, -0.5649999999999999467 ) ) ;
#869 = CARTESIAN_POINT ( 'NONE',  ( -0.6500000000000000222, 0.6250000000000000000, -0.5649999999999999467 ) ) ;
#870 = LINE ( 'NONE', #754, #581 ) ;
#871 = ORIENTED_EDGE ( 'NONE', *, *, #884, .F. ) ;
#872 = EDGE_LOOP ( 'NONE', ( #900, #51, #568, #170 ) ) ;
#873 = PLANE ( 'NONE',  #799 ) ;
#874 = CARTESIAN_POINT ( 'NONE',  ( 0.6500000000000000222, 0.5900000000000000799, 0.000000000000000000 ) ) ;
#875 = VECTOR ( 'NONE', #33, 1000.000000000000000 ) ;
#876 = DIRECTION ( 'NONE',  ( -1.000000000000000000, 0.000000000000000000, 0.000000000000000000 ) ) ;
#877 = SURFACE_SIDE_STYLE ('',( #464 ) ) ;
#878 = PRODUCT_DEFINITION_FORMATION_WITH_SPECIFIED_SOURCE ( 'ANY', '', #273, .NOT_KNOWN. ) ;
#879 = AXIS2_PLACEMENT_3D ( 'NONE', #1368, #200, #753 ) ;
#880 = ORIENTED_EDGE ( 'NONE', *, *, #661, .F. ) ;
#881 = FACE_OUTER_BOUND ( 'NONE', #259, .T. ) ;
#882 = DIRECTION ( 'NONE',  ( 0.000000000000000000, -1.000000000000000000, 0.000000000000000000 ) ) ;
#883 = EDGE_CURVE ( 'NONE', #762, #345, #977, .T. ) ;
#884 = EDGE_CURVE ( 'NONE', #284, #1290, #60, .T. ) ;
#885 = EDGE_LOOP ( 'NONE', ( #823, #1216, #1267 ) ) ;
#886 = VECTOR ( 'NONE', #251, 1000.000000000000000 ) ;
#887 = DIRECTION ( 'NONE',  ( 0.000000000000000000, 0.000000000000000000, -1.000000000000000000 ) ) ;
#888 = FACE_OUTER_BOUND ( 'NONE', #975, .T. ) ;
#889 = ORIENTED_EDGE ( 'NONE', *, *, #91, .T. ) ;
#890 = EDGE_CURVE ( 'NONE', #762, #588, #391, .T. ) ;
#891 = SPHERICAL_SURFACE ( 'NONE', #459, 0.03500000000000000333 ) ;
#892 = CARTESIAN_POINT ( 'NONE',  ( 0.9649999999999999689, 0.6250000000000000000, -0.03500000000000000333 ) ) ;
#893 = AXIS2_PLACEMENT_3D ( 'NONE', #675, #152, #39 ) ;
#894 = DIRECTION ( 'NONE',  ( 0.000000000000000000, 0.000000000000000000, -1.000000000000000000 ) ) ;
#895 = EDGE_LOOP ( 'NONE', ( #155, #445, #1201, #1148 ) ) ;
#896 = LINE ( 'NONE', #1137, #254 ) ;
#897 = DIRECTION ( 'NONE',  ( 2.045664476387744262E-16, 0.000000000000000000, 1.000000000000000000 ) ) ;
#898 = AXIS2_PLACEMENT_3D ( 'NONE', #349, #1103, #328 ) ;
#899 = CARTESIAN_POINT ( 'NONE',  ( -0.6500000000000000222, 0.6250000000000000000, -0.03500000000000000333 ) ) ;
#900 = ORIENTED_EDGE ( 'NONE', *, *, #177, .T. ) ;
#901 = EDGE_CURVE ( 'NONE', #408, #1151, #903, .T. ) ;
#902 = ADVANCED_FACE ( 'NONE', ( #70 ), #783, .T. ) ;
#903 = LINE ( 'NONE', #1327, #886 ) ;
#904 = VECTOR ( 'NONE', #122, 1000.000000000000000 ) ;
#905 = VECTOR ( 'NONE', #707, 1000.000000000000000 ) ;
#906 = VECTOR ( 'NONE', #1301, 1000.000000000000000 ) ;
#907 = FACE_OUTER_BOUND ( 'NONE', #723, .T. ) ;
#908 = ORIENTED_EDGE ( 'NONE', *, *, #44, .T. ) ;
#909 = ORIENTED_EDGE ( 'NONE', *, *, #1315, .F. ) ;
#910 = LINE ( 'NONE', #372, #1224 ) ;
#911 = ADVANCED_FACE ( 'NONE', ( #571 ), #891, .T. ) ;
#912 = SPHERICAL_SURFACE ( 'NONE', #52, 0.03500000000000000333 ) ;
#913 = VECTOR ( 'NONE', #1369, 1000.000000000000000 ) ;
#914 = CIRCLE ( 'NONE', #357, 0.03499999999999998251 ) ;
#915 = ORIENTED_EDGE ( 'NONE', *, *, #189, .T. ) ;
#916 = VERTEX_POINT ( 'NONE', #466 ) ;
#917 = CARTESIAN_POINT ( 'NONE',  ( -0.6499999999999999112, -0.6250000000000000000, -0.03499999999999998251 ) ) ;
#918 = DIRECTION ( 'NONE',  ( 0.000000000000000000, -0.000000000000000000, 1.000000000000000000 ) ) ;
#919 = EDGE_CURVE ( 'NONE', #1133, #1244, #610, .T. ) ;
#920 = DIRECTION ( 'NONE',  ( 0.000000000000000000, -1.000000000000000000, 0.000000000000000000 ) ) ;
#921 = EDGE_CURVE ( 'NONE', #432, #1290, #570, .T. ) ;
#922 = ORIENTED_EDGE ( 'NONE', *, *, #179, .F. ) ;
#923 = FACE_OUTER_BOUND ( 'NONE', #402, .T. ) ;
#924 =( LENGTH_UNIT ( ) NAMED_UNIT ( * ) SI_UNIT ( .MILLI., .METRE. ) );
#925 = VECTOR ( 'NONE', #418, 1000.000000000000000 ) ;
#926 = CARTESIAN_POINT ( 'NONE',  ( -0.6500000000000000222, 0.6250000000000000000, -0.5670000000000000595 ) ) ;
#928 = ORIENTED_EDGE ( 'NONE', *, *, #196, .F. ) ;
#927 = CARTESIAN_POINT ( 'NONE',  ( 0.9650000000000000799, -0.5899999999999999689, -0.5999999999999999778 ) ) ;
#929 = ORIENTED_EDGE ( 'NONE', *, *, #765, .T. ) ;
#930 = ORIENTED_EDGE ( 'NONE', *, *, #1091, .T. ) ;
#931 = SPHERICAL_SURFACE ( 'NONE', #159, 0.03500000000000000333 ) ;
#932 = CARTESIAN_POINT ( 'NONE',  ( 0.9650000000000000799, 0.6250000000000000000, -0.5649999999999999467 ) ) ;
#933 = ORIENTED_EDGE ( 'NONE', *, *, #153, .T. ) ;
#934 = DIRECTION ( 'NONE',  ( 1.000000000000000000, 0.000000000000000000, 0.000000000000000000 ) ) ;
#935 = DIRECTION ( 'NONE',  ( -0.000000000000000000, -1.000000000000000000, -0.000000000000000000 ) ) ;
#936 = EDGE_LOOP ( 'NONE', ( #1127, #471, #943, #758 ) ) ;
#937 = AXIS2_PLACEMENT_3D ( 'NONE', #814, #682, #687 ) ;
#938 = ADVANCED_FACE ( 'NONE', ( #923 ), #948, .T. ) ;
#939 = EDGE_CURVE ( 'NONE', #1234, #376, #1205, .T. ) ;
#940 = DIRECTION ( 'NONE',  ( 0.000000000000000000, 0.000000000000000000, -1.000000000000000000 ) ) ;
#941 = DIRECTION ( 'NONE',  ( -1.000000000000000000, -0.000000000000000000, -0.000000000000000000 ) ) ;
#942 = AXIS2_PLACEMENT_3D ( 'NONE', #1357, #1154, #1031 ) ;
#943 = ORIENTED_EDGE ( 'NONE', *, *, #395, .F. ) ;
#944 = LINE ( 'NONE', #17, #695 ) ;
#945 = PLANE ( 'NONE',  #470 ) ;
#946 = AXIS2_PLACEMENT_3D ( 'NONE', #93, #941, #1056 ) ;
#947 = CARTESIAN_POINT ( 'NONE',  ( -1.000000000000000000, 0.5900000000000000799, -0.5649999999999999467 ) ) ;
#948 = CYLINDRICAL_SURFACE ( 'NONE', #1270, 0.03499999999999998251 ) ;
#949 = DIRECTION ( 'NONE',  ( 1.000000000000000000, -0.000000000000000000, -0.000000000000000000 ) ) ;
#950 = CARTESIAN_POINT ( 'NONE',  ( -0.9650000000000000799, -0.5899999999999999689, -0.03500000000000000333 ) ) ;
#951 = SPHERICAL_SURFACE ( 'NONE', #1231, 0.03500000000000000333 ) ;
#952 = VERTEX_POINT ( 'NONE', #504 ) ;
#953 = DIRECTION ( 'NONE',  ( 1.000000000000000000, -0.000000000000000000, -0.000000000000000000 ) ) ;
#954 = SPHERICAL_SURFACE ( 'NONE', #1069, 0.03500000000000000333 ) ;
#955 = EDGE_LOOP ( 'NONE', ( #1228, #126, #847, #423 ) ) ;
#956 = DIRECTION ( 'NONE',  ( 0.000000000000000000, 0.000000000000000000, -1.000000000000000000 ) ) ;
#957 = DIRECTION ( 'NONE',  ( -1.000000000000000000, -8.673617379884035472E-17, 0.000000000000000000 ) ) ;
#958 = EDGE_CURVE ( 'NONE', #736, #1030, #186, .T. ) ;
#959 = DIRECTION ( 'NONE',  ( 1.000000000000000000, -0.000000000000000000, 0.000000000000000000 ) ) ;
#960 = DIRECTION ( 'NONE',  ( 1.000000000000000000, -0.000000000000000000, -0.000000000000000000 ) ) ;
#961 = EDGE_LOOP ( 'NONE', ( #1333, #232, #181, #352 ) ) ;
#962 = APPLICATION_CONTEXT ( 'automotive_design' ) ;
#963 = CLOSED_SHELL ( 'NONE', ( #865, #211, #365, #125, #1124, #364 ) ) ;
#964 = LINE ( 'NONE', #1079, #29 ) ;
#965 = LINE ( 'NONE', #1190, #1112 ) ;
#966 = DIRECTION ( 'NONE',  ( -1.000000000000000000, 0.000000000000000000, 0.000000000000000000 ) ) ;
#967 = EDGE_CURVE ( 'NONE', #501, #699, #300, .T. ) ;
#968 = ORIENTED_EDGE ( 'NONE', *, *, #177, .F. ) ;
#969 = AXIS2_PLACEMENT_3D ( 'NONE', #535, #1073, #618 ) ;
#970 = EDGE_CURVE ( 'NONE', #465, #1156, #1092, .T. ) ;
#971 = CARTESIAN_POINT ( 'NONE',  ( 0.9650000000000000799, 0.5900000000000000799, -0.03500000000000000333 ) ) ;
#972 = DIRECTION ( 'NONE',  ( -1.000000000000000000, 0.000000000000000000, 0.000000000000000000 ) ) ;
#973 = PLANE ( 'NONE',  #730 ) ;
#974 = DIRECTION ( 'NONE',  ( 1.000000000000000000, 0.000000000000000000, 0.000000000000000000 ) ) ;
#975 = EDGE_LOOP ( 'NONE', ( #1351, #978, #1163, #1136 ) ) ;
#976 =( LENGTH_UNIT ( ) NAMED_UNIT ( * ) SI_UNIT ( .MILLI., .METRE. ) );
#977 = CIRCLE ( 'NONE', #367, 0.03499999999999998251 ) ;
#978 = ORIENTED_EDGE ( 'NONE', *, *, #1160, .T. ) ;
#979 = CARTESIAN_POINT ( 'NONE',  ( 0.000000000000000000, 0.6250000000000000000, 0.000000000000000000 ) ) ;
#980 = LINE ( 'NONE', #572, #875 ) ;
#981 = DIRECTION ( 'NONE',  ( 1.000000000000000000, -0.000000000000000000, 0.000000000000000000 ) ) ;
#982 = ORIENTED_EDGE ( 'NONE', *, *, #519, .F. ) ;
#983 = VERTEX_POINT ( 'NONE', #818 ) ;
#984 = ADVANCED_FACE ( 'NONE', ( #837 ), #931, .T. ) ;
#985 = ADVANCED_FACE ( 'NONE', ( #1143 ), #2, .T. ) ;
#986 = VECTOR ( 'NONE', #515, 1000.000000000000000 ) ;
#987 = CARTESIAN_POINT ( 'NONE',  ( -0.9650000000000000799, -0.5899999999999999689, -0.03500000000000000333 ) ) ;
#988 = DIRECTION ( 'NONE',  ( 0.000000000000000000, 0.000000000000000000, -1.000000000000000000 ) ) ;
#989 = VECTOR ( 'NONE', #154, 1000.000000000000000 ) ;
#990 = DIRECTION ( 'NONE',  ( -0.000000000000000000, 0.000000000000000000, -1.000000000000000000 ) ) ;
#991 = AXIS2_PLACEMENT_3D ( 'NONE', #1185, #82, #721 ) ;
#992 = MANIFOLD_SOLID_BREP ( 'Fillet1', #287 ) ;
#993 = VECTOR ( 'NONE', #115, 1000.000000000000000 ) ;
#994 = DIRECTION ( 'NONE',  ( 1.000000000000000000, 0.000000000000000000, 0.000000000000000000 ) ) ;
#995 = CARTESIAN_POINT ( 'NONE',  ( 1.000000000000000000, 0.5900000000000000799, -0.03499999999999998251 ) ) ;
#996 = EDGE_CURVE ( 'NONE', #175, #698, #204, .T. ) ;
#997 = DIRECTION ( 'NONE',  ( 1.000000000000000000, 0.000000000000000000, 0.000000000000000000 ) ) ;
#998 = VERTEX_POINT ( 'NONE', #1339 ) ;
#999 = AXIS2_PLACEMENT_3D ( 'NONE', #1362, #111, #1036 ) ;
#1000 = DIRECTION ( 'NONE',  ( 1.000000000000000000, 0.000000000000000000, 0.000000000000000000 ) ) ;
#1001 = EDGE_CURVE ( 'NONE', #1064, #983, #845, .T. ) ;
#1002 = CARTESIAN_POINT ( 'NONE',  ( -0.6500000000000000222, -0.5899999999999999689, -0.03500000000000000333 ) ) ;
#1003 = ORIENTED_EDGE ( 'NONE', *, *, #1135, .F. ) ;
#1004 = DIRECTION ( 'NONE',  ( -0.000000000000000000, 1.000000000000000000, 0.000000000000000000 ) ) ;
#1005 = CARTESIAN_POINT ( 'NONE',  ( -0.9650000000000000799, 0.5900000000000000799, -0.03500000000000000333 ) ) ;
#1006 = CIRCLE ( 'NONE', #13, 0.03499999999999998251 ) ;
#1007 = CARTESIAN_POINT ( 'NONE',  ( 1.000000000000000000, 0.6250000000000000000, -0.5649999999999999467 ) ) ;
#1008 = ADVANCED_FACE ( 'NONE', ( #749 ), #757, .F. ) ;
#1009 = ORIENTED_EDGE ( 'NONE', *, *, #883, .F. ) ;
#1010 = EDGE_CURVE ( 'NONE', #1102, #345, #119, .T. ) ;
#1011 = CIRCLE ( 'NONE', #946, 0.03500000000000000333 ) ;
#1012 = CARTESIAN_POINT ( 'NONE',  ( -0.6500000000000000222, -0.5899999999999999689, -0.5999999999999999778 ) ) ;
#1013 = DIRECTION ( 'NONE',  ( -1.000000000000000000, 0.000000000000000000, 2.045664476387744262E-16 ) ) ;
#1014 = CARTESIAN_POINT ( 'NONE',  ( -0.9650000000000000799, -0.5899999999999999689, -0.5999999999999999778 ) ) ;
#1015 = ORIENTED_EDGE ( 'NONE', *, *, #1217, .T. ) ;
#1016 = ORIENTED_EDGE ( 'NONE', *, *, #1218, .F. ) ;
#1017 = DIRECTION ( 'NONE',  ( 0.000000000000000000, 0.000000000000000000, 1.000000000000000000 ) ) ;
#1018 = VECTOR ( 'NONE', #959, 1000.000000000000000 ) ;
#1019 = CARTESIAN_POINT ( 'NONE',  ( 0.9650000000000000799, -0.5899999999999999689, -0.5649999999999999467 ) ) ;
#1020 = ORIENTED_EDGE ( 'NONE', *, *, #781, .T. ) ;
#1021 = EDGE_LOOP ( 'NONE', ( #183, #1119, #666, #1111 ) ) ;
#1022 = EDGE_LOOP ( 'NONE', ( #922, #378, #404, #20 ) ) ;
#1023 = CARTESIAN_POINT ( 'NONE',  ( 0.9650000000000000799, 0.5900000000000000799, -0.5649999999999999467 ) ) ;
#1024 = PRESENTATION_STYLE_ASSIGNMENT (( #598 ) ) ;
#1025 = ADVANCED_FACE ( 'NONE', ( #14 ), #217, .T. ) ;
#1026 = CARTESIAN_POINT ( 'NONE',  ( -0.6500000000000000222, 0.6250000000000000000, -0.03500000000000000333 ) ) ;
#1027 = VECTOR ( 'NONE', #1307, 1000.000000000000000 ) ;
#1028 = AXIS2_PLACEMENT_3D ( 'NONE', #281, #1117, #478 ) ;
#1029 = ORIENTED_EDGE ( 'NONE', *, *, #58, .F. ) ;
#1030 = VERTEX_POINT ( 'NONE', #112 ) ;
#1031 = DIRECTION ( 'NONE',  ( 1.000000000000000000, 0.000000000000000000, 0.000000000000000000 ) ) ;
#1032 = CARTESIAN_POINT ( 'NONE',  ( -0.9650000000000000799, -0.5899999999999999689, 0.000000000000000000 ) ) ;
#1033 = MECHANICAL_DESIGN_GEOMETRIC_PRESENTATION_REPRESENTATION (  '', ( #813 ), #18 ) ;
#1034 = PLANE ( 'NONE',  #1146 ) ;
#1035 = PRODUCT_DEFINITION ( 'UNKNOWN', '', #878, #57 ) ;
#1037 = EDGE_LOOP ( 'NONE', ( #727, #871, #371, #1097 ) ) ;
#1036 = DIRECTION ( 'NONE',  ( 0.000000000000000000, 0.000000000000000000, -1.000000000000000000 ) ) ;
#1038 = ORIENTED_EDGE ( 'NONE', *, *, #840, .F. ) ;
#1039 = EDGE_LOOP ( 'NONE', ( #394, #1104, #108 ) ) ;
#1040 = DIRECTION ( 'NONE',  ( 1.000000000000000000, 0.000000000000000000, 0.000000000000000000 ) ) ;
#1041 = DIRECTION ( 'NONE',  ( 0.000000000000000000, 0.000000000000000000, 1.000000000000000000 ) ) ;
#1042 = VECTOR ( 'NONE', #1120, 1000.000000000000000 ) ;
#1043 = DIRECTION ( 'NONE',  ( -0.000000000000000000, -1.000000000000000000, -0.000000000000000000 ) ) ;
#1044 = VECTOR ( 'NONE', #346, 1000.000000000000000 ) ;
#1046 = ORIENTED_EDGE ( 'NONE', *, *, #573, .F. ) ;
#1045 = CARTESIAN_POINT ( 'NONE',  ( -0.9649999999999999689, -0.6250000000000000000, -0.03500000000000000333 ) ) ;
#1047 = EDGE_LOOP ( 'NONE', ( #930, #542, #94 ) ) ;
#1048 = EDGE_LOOP ( 'NONE', ( #167, #190, #609 ) ) ;
#1049 = LINE ( 'NONE', #1274, #320 ) ;
#1050 = FACE_OUTER_BOUND ( 'NONE', #493, .T. ) ;
#1051 = STYLED_ITEM ( 'NONE', ( #734 ), #992 ) ;
#1052 = CARTESIAN_POINT ( 'NONE',  ( 0.000000000000000000, 0.5900000000000000799, 0.000000000000000000 ) ) ;
#1053 = CIRCLE ( 'NONE', #769, 0.03499999999999998251 ) ;
#1054 = ADVANCED_FACE ( 'NONE', ( #1284 ), #1293, .T. ) ;
#1055 = CARTESIAN_POINT ( 'NONE',  ( -0.9650000000000000799, -0.5900000000000000799, -0.5649999999999999467 ) ) ;
#1056 = DIRECTION ( 'NONE',  ( 0.000000000000000000, 0.000000000000000000, -1.000000000000000000 ) ) ;
#1057 = EDGE_LOOP ( 'NONE', ( #1061, #385, #835, #611 ) ) ;
#1058 = CARTESIAN_POINT ( 'NONE',  ( 1.000000000000000000, -0.5899999999999999689, -0.5999999999999999778 ) ) ;
#1059 = CYLINDRICAL_SURFACE ( 'NONE', #405, 0.03500000000000000333 ) ;
#1060 = AXIS2_PLACEMENT_3D ( 'NONE', #1080, #1281, #745 ) ;
#1061 = ORIENTED_EDGE ( 'NONE', *, *, #1001, .T. ) ;
#1062 = CARTESIAN_POINT ( 'NONE',  ( -0.9649999999999999689, 0.6250000000000000000, -0.03500000000000000333 ) ) ;
#1063 = DIRECTION ( 'NONE',  ( -1.000000000000000000, -0.000000000000000000, -0.000000000000000000 ) ) ;
#1064 = VERTEX_POINT ( 'NONE', #531 ) ;
#1065 = AXIS2_PLACEMENT_3D ( 'NONE', #1211, #674, #1107 ) ;
#1066 = DIRECTION ( 'NONE',  ( -1.000000000000000000, -0.000000000000000000, -0.000000000000000000 ) ) ;
#1067 = CARTESIAN_POINT ( 'NONE',  ( 0.000000000000000000, -0.5900000000000000799, 0.000000000000000000 ) ) ;
#1068 = DIRECTION ( 'NONE',  ( -2.045664476387744262E-16, -0.000000000000000000, -1.000000000000000000 ) ) ;
#1069 = AXIS2_PLACEMENT_3D ( 'NONE', #8, #422, #852 ) ;
#1070 = CARTESIAN_POINT ( 'NONE',  ( 0.9650000000000000799, 0.6250000000000000000, -0.5649999999999999467 ) ) ;
#1071 = DIRECTION ( 'NONE',  ( 1.000000000000000000, -0.000000000000000000, -0.000000000000000000 ) ) ;
#1072 = EDGE_CURVE ( 'NONE', #284, #175, #866, .T. ) ;
#1073 = DIRECTION ( 'NONE',  ( -0.000000000000000000, 1.000000000000000000, -0.000000000000000000 ) ) ;
#1074 = PLANE ( 'NONE',  #377 ) ;
#1075 = ORIENTED_EDGE ( 'NONE', *, *, #1328, .T. ) ;
#1076 = CIRCLE ( 'NONE', #97, 0.03499999999999998251 ) ;
#1077 = DIRECTION ( 'NONE',  ( -0.000000000000000000, 0.000000000000000000, -1.000000000000000000 ) ) ;
#1078 = AXIS2_PLACEMENT_3D ( 'NONE', #547, #876, #225 ) ;
#1079 = CARTESIAN_POINT ( 'NONE',  ( -1.000000000000000000, -0.5899999999999999689, -0.5999999999999999778 ) ) ;
#1080 = CARTESIAN_POINT ( 'NONE',  ( -0.9650000000000000799, -0.5899999999999999689, -0.5649999999999999467 ) ) ;
#1081 = CARTESIAN_POINT ( 'NONE',  ( 0.9649999999999999689, 0.6250000000000000000, -0.03500000000000000333 ) ) ;
#1082 = ADVANCED_FACE ( 'NONE', ( #867 ), #954, .T. ) ;
#1083 = CARTESIAN_POINT ( 'NONE',  ( -1.000000000000000000, -0.5899999999999999689, -0.5649999999999999467 ) ) ;
#1084 = ADVANCED_FACE ( 'NONE', ( #763 ), #1278, .T. ) ;
#1085 = CIRCLE ( 'NONE', #1128, 0.03499999999999998251 ) ;
#1086 = ORIENTED_EDGE ( 'NONE', *, *, #428, .T. ) ;
#1087 = DIRECTION ( 'NONE',  ( 1.000000000000000000, 0.000000000000000000, -0.000000000000000000 ) ) ;
#1088 = CARTESIAN_POINT ( 'NONE',  ( -1.000000000000000000, 0.6250000000000000000, -0.5999999999999999778 ) ) ;
#1089 = DIRECTION ( 'NONE',  ( -0.000000000000000000, -1.000000000000000000, -0.000000000000000000 ) ) ;
#1090 = LINE ( 'NONE', #1192, #1256 ) ;
#1091 = EDGE_CURVE ( 'NONE', #983, #501, #616, .T. ) ;
#1092 = CIRCLE ( 'NONE', #810, 0.03499999999999998251 ) ;
#1093 = AXIS2_PLACEMENT_3D ( 'NONE', #311, #1179, #209 ) ;
#1094 = EDGE_LOOP ( 'NONE', ( #539, #83, #1009, #662 ) ) ;
#1095 = FACE_OUTER_BOUND ( 'NONE', #961, .T. ) ;
#1096 = PLANE ( 'NONE',  #669 ) ;
#1097 = ORIENTED_EDGE ( 'NONE', *, *, #1199, .T. ) ;
#1098 = CIRCLE ( 'NONE', #1336, 0.03499999999999998251 ) ;
#1099 = DIRECTION ( 'NONE',  ( 0.000000000000000000, 0.000000000000000000, 1.000000000000000000 ) ) ;
#1100 = CARTESIAN_POINT ( 'NONE',  ( 0.9650000000000000799, 0.6250000000000000000, -0.5649999999999999467 ) ) ;
#1101 = AXIS2_PLACEMENT_3D ( 'NONE', #1019, #260, #1337 ) ;
#1102 = VERTEX_POINT ( 'NONE', #1182 ) ;
#1103 = DIRECTION ( 'NONE',  ( 0.000000000000000000, 0.000000000000000000, 1.000000000000000000 ) ) ;
#1104 = ORIENTED_EDGE ( 'NONE', *, *, #659, .T. ) ;
#1105 = UNCERTAINTY_MEASURE_WITH_UNIT (LENGTH_MEASURE( 1.000000000000000082E-05 ), #645, 'distance_accuracy_value', 'NONE');
#1106 = ORIENTED_EDGE ( 'NONE', *, *, #1250, .T. ) ;
#1107 = DIRECTION ( 'NONE',  ( 0.000000000000000000, 0.000000000000000000, 1.000000000000000000 ) ) ;
#1108 = CARTESIAN_POINT ( 'NONE',  ( 0.6500000000000000222, 0.6250000000000000000, -0.5999999999999999778 ) ) ;
#1109 = FACE_OUTER_BOUND ( 'NONE', #1195, .T. ) ;
#1110 = ORIENTED_EDGE ( 'NONE', *, *, #81, .T. ) ;
#1111 = ORIENTED_EDGE ( 'NONE', *, *, #456, .T. ) ;
#1112 = VECTOR ( 'NONE', #760, 1000.000000000000000 ) ;
#1113 = CIRCLE ( 'NONE', #442, 0.03499999999999998251 ) ;
#1114 = CARTESIAN_POINT ( 'NONE',  ( -0.6500000000000000222, 0.6250000000000000000, -0.03499999999999998251 ) ) ;
#1115 = CARTESIAN_POINT ( 'NONE',  ( -0.6499999999999999112, -0.6250000000000000000, -0.03499999999999998251 ) ) ;
#1116 = EDGE_CURVE ( 'NONE', #1030, #218, #236, .T. ) ;
#1117 = DIRECTION ( 'NONE',  ( 1.000000000000000000, 0.000000000000000000, 0.000000000000000000 ) ) ;
#1118 = EDGE_CURVE ( 'NONE', #1102, #998, #656, .T. ) ;
#1119 = ORIENTED_EDGE ( 'NONE', *, *, #1116, .F. ) ;
#1120 = DIRECTION ( 'NONE',  ( 0.000000000000000000, -1.000000000000000000, 0.000000000000000000 ) ) ;
#1121 = FACE_OUTER_BOUND ( 'NONE', #59, .T. ) ;
#1122 = VECTOR ( 'NONE', #1297, 1000.000000000000000 ) ;
#1123 = DIRECTION ( 'NONE',  ( -0.000000000000000000, -1.000000000000000000, -0.000000000000000000 ) ) ;
#1124 = ADVANCED_FACE ( 'NONE', ( #1095 ), #1207, .F. ) ;
#1125 = ADVANCED_FACE ( 'NONE', ( #32 ), #648, .F. ) ;
#1126 = EDGE_LOOP ( 'NONE', ( #828, #234, #292, #1305 ) ) ;
#1127 = ORIENTED_EDGE ( 'NONE', *, *, #411, .F. ) ;
#1128 = AXIS2_PLACEMENT_3D ( 'NONE', #313, #643, #649 ) ;
#1129 = CARTESIAN_POINT ( 'NONE',  ( 0.9650000000000000799, 0.6250000000000000000, -0.5649999999999999467 ) ) ;
#1130 = CARTESIAN_POINT ( 'NONE',  ( -0.6500000000000000222, 0.5900000000000000799, -0.03500000000000000333 ) ) ;
#1131 = STYLED_ITEM ( 'NONE', ( #127 ), #482 ) ;
#1132 = DIRECTION ( 'NONE',  ( -8.673617379884035472E-17, 1.000000000000000000, -0.000000000000000000 ) ) ;
#1133 = VERTEX_POINT ( 'NONE', #1286 ) ;
#1134 = EDGE_LOOP ( 'NONE', ( #1344, #503, #582 ) ) ;
#1135 = EDGE_CURVE ( 'NONE', #789, #1252, #964, .T. ) ;
#1136 = ORIENTED_EDGE ( 'NONE', *, *, #411, .T. ) ;
#1137 = CARTESIAN_POINT ( 'NONE',  ( -0.9650000000000000799, 0.6250000000000000000, 0.000000000000000000 ) ) ;
#1138 = LINE ( 'NONE', #495, #340 ) ;
#1139 = ORIENTED_EDGE ( 'NONE', *, *, #487, .T. ) ;
#1140 = FACE_OUTER_BOUND ( 'NONE', #704, .T. ) ;
#1141 = VERTEX_POINT ( 'NONE', #1310 ) ;
#1142 = ORIENTED_EDGE ( 'NONE', *, *, #196, .T. ) ;
#1143 = FACE_OUTER_BOUND ( 'NONE', #621, .T. ) ;
#1144 =( LENGTH_UNIT ( ) NAMED_UNIT ( * ) SI_UNIT ( .MILLI., .METRE. ) );
#1145 = LINE ( 'NONE', #1254, #1193 ) ;
#1146 = AXIS2_PLACEMENT_3D ( 'NONE', #926, #957, #188 ) ;
#1147 = VECTOR ( 'NONE', #920, 1000.000000000000000 ) ;
#1148 = ORIENTED_EDGE ( 'NONE', *, *, #1010, .F. ) ;
#1149 = CARTESIAN_POINT ( 'NONE',  ( 0.6500000000000000222, 0.5900000000000000799, -0.03500000000000000333 ) ) ;
#1150 = CARTESIAN_POINT ( 'NONE',  ( 0.6500000000000000222, 0.6250000000000000000, 0.000000000000000000 ) ) ;
#1151 = VERTEX_POINT ( 'NONE', #16 ) ;
#1152 = ORIENTED_EDGE ( 'NONE', *, *, #623, .T. ) ;
#1153 = ORIENTED_EDGE ( 'NONE', *, *, #274, .F. ) ;
#1154 = DIRECTION ( 'NONE',  ( -0.000000000000000000, 0.000000000000000000, 1.000000000000000000 ) ) ;
#1155 = SURFACE_STYLE_USAGE ( .BOTH. , #1365 ) ;
#1156 = VERTEX_POINT ( 'NONE', #663 ) ;
#1157 = VECTOR ( 'NONE', #597, 1000.000000000000000 ) ;
#1158 = DIRECTION ( 'NONE',  ( 0.000000000000000000, 0.000000000000000000, 1.000000000000000000 ) ) ;
#1159 = PLANE ( 'NONE',  #806 ) ;
#1160 = EDGE_CURVE ( 'NONE', #1309, #1102, #1113, .T. ) ;
#1161 = AXIS2_PLACEMENT_3D ( 'NONE', #544, #972, #1099 ) ;
#1162 = CARTESIAN_POINT ( 'NONE',  ( 0.9650000000000000799, 0.6250000000000000000, -0.5649999999999999467 ) ) ;
#1163 = ORIENTED_EDGE ( 'NONE', *, *, #1118, .T. ) ;
#1164 = FILL_AREA_STYLE_COLOUR ( '', #607 ) ;
#1165 = ORIENTED_EDGE ( 'NONE', *, *, #31, .F. ) ;
#1166 = CARTESIAN_POINT ( 'NONE',  ( 1.000000000000000000, -0.5899999999999999689, -0.5649999999999999467 ) ) ;
#1167 = FACE_OUTER_BOUND ( 'NONE', #863, .T. ) ;
#1168 = PRESENTATION_LAYER_ASSIGNMENT (  '', '', ( #1051 ) ) ;
#1169 = CYLINDRICAL_SURFACE ( 'NONE', #999, 0.03500000000000000333 ) ;
#1170 = CIRCLE ( 'NONE', #562, 0.03499999999999998251 ) ;
#1171 = ADVANCED_FACE ( 'NONE', ( #448 ), #777, .F. ) ;
#1172 = AXIS2_PLACEMENT_3D ( 'NONE', #804, #894, #1319 ) ;
#1173 = ORIENTED_EDGE ( 'NONE', *, *, #901, .T. ) ;
#1174 = FACE_OUTER_BOUND ( 'NONE', #269, .T. ) ;
#1175 = LINE ( 'NONE', #1067, #536 ) ;
#1176 = PRESENTATION_LAYER_ASSIGNMENT (  '', '', ( #813 ) ) ;
#1177 = DIRECTION ( 'NONE',  ( 0.000000000000000000, 0.000000000000000000, -1.000000000000000000 ) ) ;
#1178 = ADVANCED_FACE ( 'NONE', ( #1196 ), #873, .F. ) ;
#1179 = DIRECTION ( 'NONE',  ( 1.000000000000000000, 0.000000000000000000, 0.000000000000000000 ) ) ;
#1180 = ORIENTED_EDGE ( 'NONE', *, *, #1314, .T. ) ;
#1181 = VECTOR ( 'NONE', #414, 1000.000000000000000 ) ;
#1182 = CARTESIAN_POINT ( 'NONE',  ( 0.6500000000000000222, 0.5900000000000000799, -0.5999999999999999778 ) ) ;
#1183 = DIRECTION ( 'NONE',  ( 1.000000000000000000, 0.000000000000000000, 0.000000000000000000 ) ) ;
#1184 = DIRECTION ( 'NONE',  ( 0.000000000000000000, 0.000000000000000000, 1.000000000000000000 ) ) ;
#1185 = CARTESIAN_POINT ( 'NONE',  ( 1.000000000000000000, 0.6250000000000000000, -0.5999999999999999778 ) ) ;
#1186 = AXIS2_PLACEMENT_3D ( 'NONE', #530, #953, #203 ) ;
#1187 = CARTESIAN_POINT ( 'NONE',  ( 1.000000000000000000, 0.5900000000000000799, -0.5999999999999999778 ) ) ;
#1188 = VERTEX_POINT ( 'NONE', #1189 ) ;
#1189 = CARTESIAN_POINT ( 'NONE',  ( 0.9650000000000000799, -0.6250000000000000000, -0.5649999999999999467 ) ) ;
#1190 = CARTESIAN_POINT ( 'NONE',  ( -0.9649999999999999689, 0.6250000000000000000, -0.03500000000000000333 ) ) ;
#1191 = DIRECTION ( 'NONE',  ( -1.000000000000000000, 0.000000000000000000, 0.000000000000000000 ) ) ;
#1192 = CARTESIAN_POINT ( 'NONE',  ( -0.9649999999999999689, 0.6250000000000000000, -0.5649999999999999467 ) ) ;
#1193 = VECTOR ( 'NONE', #497, 1000.000000000000000 ) ;
#1194 = DIRECTION ( 'NONE',  ( 0.000000000000000000, 0.000000000000000000, -1.000000000000000000 ) ) ;
#1195 = EDGE_LOOP ( 'NONE', ( #1248, #34, #880, #1003 ) ) ;
#1196 = FACE_OUTER_BOUND ( 'NONE', #1057, .T. ) ;
#1197 = CARTESIAN_POINT ( 'NONE',  ( -0.6500000000000000222, -0.6250000000000000000, -0.5649999999999999467 ) ) ;
#1198 = CARTESIAN_POINT ( 'NONE',  ( -0.9650000000000000799, 0.5900000000000000799, -0.5649999999999999467 ) ) ;
#1199 = EDGE_CURVE ( 'NONE', #588, #1188, #220, .T. ) ;
#1200 = EDGE_CURVE ( 'NONE', #983, #1133, #255, .T. ) ;
#1201 = ORIENTED_EDGE ( 'NONE', *, *, #294, .F. ) ;
#1202 = DIRECTION ( 'NONE',  ( -1.000000000000000000, -0.000000000000000000, -0.000000000000000000 ) ) ;
#1203 = AXIS2_PLACEMENT_3D ( 'NONE', #617, #831, #512 ) ;
#1204 = ORIENTED_EDGE ( 'NONE', *, *, #717, .T. ) ;
#1205 = CIRCLE ( 'NONE', #525, 0.03500000000000000333 ) ;
#1206 = AXIS2_PLACEMENT_3D ( 'NONE', #407, #197, #216 ) ;
#1207 = PLANE ( 'NONE',  #462 ) ;
#1208 = DIRECTION ( 'NONE',  ( 2.045664476387744262E-16, 0.000000000000000000, -1.000000000000000000 ) ) ;
#1209 = CARTESIAN_POINT ( 'NONE',  ( 0.6500000000000000222, 0.6250000000000000000, -0.03499999999999998251 ) ) ;
#1210 = AXIS2_PLACEMENT_3D ( 'NONE', #1108, #657, #237 ) ;
#1211 = CARTESIAN_POINT ( 'NONE',  ( 0.000000000000000000, 0.5900000000000000799, -0.03500000000000000333 ) ) ;
#1212 = LINE ( 'NONE', #449, #1027 ) ;
#1213 = AXIS2_PLACEMENT_3D ( 'NONE', #709, #468, #599 ) ;
#1214 = CYLINDRICAL_SURFACE ( 'NONE', #1078, 0.03500000000000000333 ) ;
#1215 = AXIS2_PLACEMENT_3D ( 'NONE', #192, #949, #505 ) ;
#1216 = ORIENTED_EDGE ( 'NONE', *, *, #135, .T. ) ;
#1217 = EDGE_CURVE ( 'NONE', #819, #408, #564, .T. ) ;
#1218 = EDGE_CURVE ( 'NONE', #1141, #647, #330, .T. ) ;
#1219 = DIRECTION ( 'NONE',  ( -0.000000000000000000, 0.000000000000000000, 1.000000000000000000 ) ) ;
#1220 = DIRECTION ( 'NONE',  ( -1.000000000000000000, -0.000000000000000000, -0.000000000000000000 ) ) ;
#1221 = ADVANCED_FACE ( 'NONE', ( #228 ), #37, .T. ) ;
#1222 = DIRECTION ( 'NONE',  ( 1.000000000000000000, -0.000000000000000000, -0.000000000000000000 ) ) ;
#1223 = EDGE_LOOP ( 'NONE', ( #78, #694, #705, #1363 ) ) ;
#1224 = VECTOR ( 'NONE', #791, 1000.000000000000000 ) ;
#1225 = FACE_OUTER_BOUND ( 'NONE', #334, .T. ) ;
#1226 = CARTESIAN_POINT ( 'NONE',  ( -0.9650000000000000799, 0.6250000000000000000, -0.5649999999999999467 ) ) ;
#1227 = DIRECTION ( 'NONE',  ( 1.000000000000000000, 0.000000000000000000, 0.000000000000000000 ) ) ;
#1228 = ORIENTED_EDGE ( 'NONE', *, *, #1308, .T. ) ;
#1229 = CARTESIAN_POINT ( 'NONE',  ( 0.9650000000000000799, 0.5900000000000000799, -0.5649999999999999467 ) ) ;
#1230 = SURFACE_SIDE_STYLE ('',( #61 ) ) ;
#1231 = AXIS2_PLACEMENT_3D ( 'NONE', #308, #420, #849 ) ;
#1232 = DIRECTION ( 'NONE',  ( -0.000000000000000000, -1.000000000000000000, -0.000000000000000000 ) ) ;
#1233 = ADVANCED_FACE ( 'NONE', ( #881 ), #42, .T. ) ;
#1234 = VERTEX_POINT ( 'NONE', #114 ) ;
#1235 = ORIENTED_EDGE ( 'NONE', *, *, #161, .T. ) ;
#1236 = COLOUR_RGB ( '',0.8039215686274510109, 0.8039215686274510109, 0.8039215686274510109 ) ;
#1237 = CARTESIAN_POINT ( 'NONE',  ( 0.6500000000000000222, -0.6250000000000000000, -0.03500000000000000333 ) ) ;
#1238 = DIRECTION ( 'NONE',  ( -1.000000000000000000, -0.000000000000000000, -0.000000000000000000 ) ) ;
#1239 = CARTESIAN_POINT ( 'NONE',  ( -0.9649999999999999689, -0.6250000000000000000, -0.03500000000000000333 ) ) ;
#1240 = VERTEX_POINT ( 'NONE', #947 ) ;
#1241 = AXIS2_PLACEMENT_3D ( 'NONE', #1023, #481, #53 ) ;
#1242 = EDGE_CURVE ( 'NONE', #376, #90, #89, .T. ) ;
#1243 = EDGE_CURVE ( 'NONE', #1188, #1290, #850, .T. ) ;
#1244 = VERTEX_POINT ( 'NONE', #614 ) ;
#1245 = CARTESIAN_POINT ( 'NONE',  ( -0.9650000000000000799, 0.5900000000000000799, -0.5649999999999999467 ) ) ;
#1246 = AXIS2_PLACEMENT_3D ( 'NONE', #322, #759, #440 ) ;
#1247 = CYLINDRICAL_SURFACE ( 'NONE', #1028, 0.03499999999999998251 ) ;
#1248 = ORIENTED_EDGE ( 'NONE', *, *, #1354, .F. ) ;
#1249 = ORIENTED_EDGE ( 'NONE', *, *, #224, .T. ) ;
#1250 = EDGE_CURVE ( 'NONE', #786, #1234, #747, .T. ) ;
#1251 = SURFACE_STYLE_FILL_AREA ( #1273 ) ;
#1252 = VERTEX_POINT ( 'NONE', #421 ) ;
#1253 = EDGE_LOOP ( 'NONE', ( #401, #929, #1038, #808 ) ) ;
#1254 = CARTESIAN_POINT ( 'NONE',  ( -0.9650000000000000799, 0.6250000000000000000, -0.5649999999999999467 ) ) ;
#1255 = AXIS2_PLACEMENT_3D ( 'NONE', #892, #347, #1208 ) ;
#1256 = VECTOR ( 'NONE', #997, 1000.000000000000000 ) ;
#1257 = PLANE ( 'NONE',  #991 ) ;
#1258 = ORIENTED_EDGE ( 'NONE', *, *, #527, .T. ) ;
#1259 = ORIENTED_EDGE ( 'NONE', *, *, #1200, .T. ) ;
#1260 = DIRECTION ( 'NONE',  ( 1.000000000000000000, -0.000000000000000000, 2.045664476387744262E-16 ) ) ;
#1261 = ADVANCED_FACE ( 'NONE', ( #620 ), #638, .T. ) ;
#1262 = CARTESIAN_POINT ( 'NONE',  ( 1.000000000000000000, -0.5899999999999999689, -0.03500000000000000333 ) ) ;
#1263 = COLOUR_RGB ( '',0.7921568627450980005, 0.8196078431372548767, 0.9333333333333333481 ) ;
#1264 = FACE_OUTER_BOUND ( 'NONE', #348, .T. ) ;
#1265 = ORIENTED_EDGE ( 'NONE', *, *, #1242, .T. ) ;
#1266 =( LENGTH_UNIT ( ) NAMED_UNIT ( * ) SI_UNIT ( .MILLI., .METRE. ) );
#1267 = ORIENTED_EDGE ( 'NONE', *, *, #623, .F. ) ;
#1268 = CARTESIAN_POINT ( 'NONE',  ( 0.6500000000000000222, -0.6250000000000000000, -0.5649999999999999467 ) ) ;
#1269 = DIRECTION ( 'NONE',  ( -1.000000000000000000, 0.000000000000000000, 0.000000000000000000 ) ) ;
#1270 = AXIS2_PLACEMENT_3D ( 'NONE', #285, #714, #1364 ) ;
#1271 = VECTOR ( 'NONE', #960, 1000.000000000000000 ) ;
#1272 = DIRECTION ( 'NONE',  ( -0.000000000000000000, -1.000000000000000000, -0.000000000000000000 ) ) ;
#1273 = FILL_AREA_STYLE ('',( #725 ) ) ;
#1274 = CARTESIAN_POINT ( 'NONE',  ( -1.000000000000000000, 0.5900000000000000799, 0.000000000000000000 ) ) ;
#1275 = DIRECTION ( 'NONE',  ( 0.000000000000000000, 1.000000000000000000, 0.000000000000000000 ) ) ;
#1276 = ADVANCED_FACE ( 'NONE', ( #516 ), #12, .T. ) ;
#1277 = LINE ( 'NONE', #522, #214 ) ;
#1278 = CYLINDRICAL_SURFACE ( 'NONE', #1093, 0.03499999999999998251 ) ;
#1279 = ORIENTED_EDGE ( 'NONE', *, *, #374, .T. ) ;
#1280 = ORIENTED_EDGE ( 'NONE', *, *, #1118, .F. ) ;
#1281 = DIRECTION ( 'NONE',  ( -1.000000000000000000, -0.000000000000000000, -0.000000000000000000 ) ) ;
#1282 = DIRECTION ( 'NONE',  ( 0.000000000000000000, 0.000000000000000000, -1.000000000000000000 ) ) ;
#1283 = CARTESIAN_POINT ( 'NONE',  ( -0.6500000000000000222, 0.5900000000000000799, 0.000000000000000000 ) ) ;
#1284 = FACE_OUTER_BOUND ( 'NONE', #1094, .T. ) ;
#1285 = ORIENTED_EDGE ( 'NONE', *, *, #295, .F. ) ;
#1286 = CARTESIAN_POINT ( 'NONE',  ( -1.000000000000000000, -0.5899999999999999689, -0.03500000000000000333 ) ) ;
#1287 = LINE ( 'NONE', #1058, #993 ) ;
#1288 = CARTESIAN_POINT ( 'NONE',  ( -0.9650000000000000799, 0.6250000000000000000, -0.5649999999999999467 ) ) ;
#1289 = VECTOR ( 'NONE', #380, 1000.000000000000000 ) ;
#1290 = VERTEX_POINT ( 'NONE', #429 ) ;
#1291 = VERTEX_POINT ( 'NONE', #630 ) ;
#1292 = AXIS2_PLACEMENT_3D ( 'NONE', #859, #318, #640 ) ;
#1293 = CYLINDRICAL_SURFACE ( 'NONE', #417, 0.03499999999999998251 ) ;
#1294 = ORIENTED_EDGE ( 'NONE', *, *, #718, .T. ) ;
#1295 = DIRECTION ( 'NONE',  ( -2.045664476387744262E-16, -0.000000000000000000, 1.000000000000000000 ) ) ;
#1296 = DIRECTION ( 'NONE',  ( 0.000000000000000000, 0.000000000000000000, 1.000000000000000000 ) ) ;
#1297 = DIRECTION ( 'NONE',  ( -1.000000000000000000, -0.000000000000000000, -0.000000000000000000 ) ) ;
#1298 = EDGE_LOOP ( 'NONE', ( #1346, #909, #1332, #569 ) ) ;
#1299 = AXIS2_PLACEMENT_3D ( 'NONE', #66, #605, #488 ) ;
#1300 = ORIENTED_EDGE ( 'NONE', *, *, #717, .F. ) ;
#1301 = DIRECTION ( 'NONE',  ( -0.000000000000000000, -1.000000000000000000, -0.000000000000000000 ) ) ;
#1302 = DIRECTION ( 'NONE',  ( 0.000000000000000000, 0.000000000000000000, -1.000000000000000000 ) ) ;
#1303 = DIRECTION ( 'NONE',  ( -1.000000000000000000, 0.000000000000000000, 0.000000000000000000 ) ) ;
#1304 = PRESENTATION_LAYER_ASSIGNMENT (  '', '', ( #1131 ) ) ;
#1305 = ORIENTED_EDGE ( 'NONE', *, *, #884, .T. ) ;
#1306 = DIRECTION ( 'NONE',  ( 0.000000000000000000, 0.000000000000000000, -1.000000000000000000 ) ) ;
#1307 = DIRECTION ( 'NONE',  ( -0.000000000000000000, 1.000000000000000000, -0.000000000000000000 ) ) ;
#1308 = EDGE_CURVE ( 'NONE', #68, #218, #1, .T. ) ;
#1309 = VERTEX_POINT ( 'NONE', #843 ) ;
#1310 = CARTESIAN_POINT ( 'NONE',  ( -0.9650000000000000799, 0.6250000000000000000, -0.5649999999999999467 ) ) ;
#1311 = CARTESIAN_POINT ( 'NONE',  ( 0.9650000000000000799, -0.5900000000000000799, -0.5649999999999999467 ) ) ;
#1312 = ORIENTED_EDGE ( 'NONE', *, *, #1135, .T. ) ;
#1313 = APPLICATION_PROTOCOL_DEFINITION ( 'draft international standard', 'automotive_design', 1998, #390 ) ;
#1314 = EDGE_CURVE ( 'NONE', #463, #789, #858, .T. ) ;
#1315 = EDGE_CURVE ( 'NONE', #660, #463, #7, .T. ) ;
#1316 = VECTOR ( 'NONE', #1043, 1000.000000000000000 ) ;
#1317 = FACE_OUTER_BOUND ( 'NONE', #936, .T. ) ;
#1318 = DIRECTION ( 'NONE',  ( 0.000000000000000000, 0.000000000000000000, -1.000000000000000000 ) ) ;
#1319 = DIRECTION ( 'NONE',  ( -1.000000000000000000, 0.000000000000000000, -0.000000000000000000 ) ) ;
#1320 = AXIS2_PLACEMENT_3D ( 'NONE', #1130, #172, #1041 ) ;
#1321 = ORIENTED_EDGE ( 'NONE', *, *, #473, .T. ) ;
#1322 = CARTESIAN_POINT ( 'NONE',  ( 1.000000000000000000, -0.5899999999999999689, -0.5999999999999999778 ) ) ;
#1323 = CARTESIAN_POINT ( 'NONE',  ( 0.6500000000000000222, 0.6250000000000000000, -0.5649999999999999467 ) ) ;
#1324 = ORIENTED_EDGE ( 'NONE', *, *, #967, .F. ) ;
#1325 = AXIS2_PLACEMENT_3D ( 'NONE', #109, #956, #841 ) ;
#1326 = VECTOR ( 'NONE', #500, 1000.000000000000000 ) ;
#1327 = CARTESIAN_POINT ( 'NONE',  ( 0.9649999999999999689, 0.6250000000000000000, -0.03500000000000000333 ) ) ;
#1328 = EDGE_CURVE ( 'NONE', #737, #983, #208, .T. ) ;
#1329 = PLANE ( 'NONE',  #384 ) ;
#1330 = EDGE_CURVE ( 'NONE', #983, #465, #742, .T. ) ;
#1331 = PLANE ( 'NONE',  #55 ) ;
#1332 = ORIENTED_EDGE ( 'NONE', *, *, #659, .F. ) ;
#1333 = ORIENTED_EDGE ( 'NONE', *, *, #958, .F. ) ;
#1334 = CARTESIAN_POINT ( 'NONE',  ( -0.9649999999999999689, 0.6250000000000000000, -0.03500000000000000333 ) ) ;
#1335 = SURFACE_STYLE_FILL_AREA ( #797 ) ;
#1336 = AXIS2_PLACEMENT_3D ( 'NONE', #792, #1220, #43 ) ;
#1337 = DIRECTION ( 'NONE',  ( 0.000000000000000000, 0.000000000000000000, -1.000000000000000000 ) ) ;
#1338 = ORIENTED_EDGE ( 'NONE', *, *, #1353, .T. ) ;
#1339 = CARTESIAN_POINT ( 'NONE',  ( 0.6500000000000000222, -0.5899999999999999689, -0.5999999999999999778 ) ) ;
#1340 = LINE ( 'NONE', #3, #162 ) ;
#1341 = ORIENTED_EDGE ( 'NONE', *, *, #79, .F. ) ;
#1342 = DIRECTION ( 'NONE',  ( 0.000000000000000000, 0.000000000000000000, 1.000000000000000000 ) ) ;
#1343 = ADVANCED_FACE ( 'NONE', ( #1264 ), #1169, .T. ) ;
#1344 = ORIENTED_EDGE ( 'NONE', *, *, #661, .T. ) ;
#1345 = ORIENTED_EDGE ( 'NONE', *, *, #179, .T. ) ;
#1346 = ORIENTED_EDGE ( 'NONE', *, *, #589, .F. ) ;
#1347 = CARTESIAN_POINT ( 'NONE',  ( -1.000000000000000000, -0.5899999999999999689, 0.000000000000000000 ) ) ;
#1348 = DIRECTION ( 'NONE',  ( 0.000000000000000000, 0.000000000000000000, -1.000000000000000000 ) ) ;
#1349 = VECTOR ( 'NONE', #1063, 1000.000000000000000 ) ;
#1351 = ORIENTED_EDGE ( 'NONE', *, *, #72, .F. ) ;
#1350 = DIRECTION ( 'NONE',  ( 0.000000000000000000, -0.000000000000000000, -1.000000000000000000 ) ) ;
#1352 = VERTEX_POINT ( 'NONE', #927 ) ;
#1353 = EDGE_CURVE ( 'NONE', #1244, #1240, #1277, .T. ) ;
#1354 = EDGE_CURVE ( 'NONE', #436, #789, #396, .T. ) ;
#1355 = VERTEX_POINT ( 'NONE', #1283 ) ;
#1356 = EDGE_CURVE ( 'NONE', #588, #284, #731, .T. ) ;
#1357 = CARTESIAN_POINT ( 'NONE',  ( 0.000000000000000000, 0.000000000000000000, 0.000000000000000000 ) ) ;
#1358 = LINE ( 'NONE', #520, #184 ) ;
#1359 = ORIENTED_EDGE ( 'NONE', *, *, #519, .T. ) ;
#1360 = DIRECTION ( 'NONE',  ( -1.000000000000000000, -0.000000000000000000, -0.000000000000000000 ) ) ;
#1361 = CIRCLE ( 'NONE', #626, 0.03500000000000000333 ) ;
#1362 = CARTESIAN_POINT ( 'NONE',  ( -1.000000000000000000, -0.5899999999999999689, -0.03500000000000000333 ) ) ;
#1363 = ORIENTED_EDGE ( 'NONE', *, *, #919, .F. ) ;
#1364 = DIRECTION ( 'NONE',  ( 1.000000000000000000, 0.000000000000000000, 0.000000000000000000 ) ) ;
#1365 = SURFACE_SIDE_STYLE ('',( #838 ) ) ;
#1366 = ADVANCED_FACE ( 'NONE', ( #106 ), #1257, .F. ) ;
#1367 = PRESENTATION_LAYER_ASSIGNMENT (  '', '', ( #230 ) ) ;
#1368 = CARTESIAN_POINT ( 'NONE',  ( -0.9650000000000000799, 0.5900000000000000799, -0.5649999999999999467 ) ) ;
#1369 = DIRECTION ( 'NONE',  ( 1.000000000000000000, -0.000000000000000000, -0.000000000000000000 ) ) ;
ENDSEC;
END-ISO-10303-21;
